<?xml version="1.0" encoding="UTF-8"?>
<svg xmlns="http://www.w3.org/2000/svg" viewBox="0 0 482.7 462.92">
  <defs>
    <style>
      .cls-1, .cls-2, .cls-3, .cls-4, .cls-5, .cls-6, .cls-7, .cls-8, .cls-9, .cls-10, .cls-11, .cls-12, .cls-13, .cls-14, .cls-15, .cls-16, .cls-17, .cls-18, .cls-19, .cls-20, .cls-21, .cls-22, .cls-23 {
        stroke-width: 0px;
      }

      .cls-1, .cls-13, .cls-14 {
        opacity: .3;
      }

      .cls-24 {
        opacity: .1;
      }

      .cls-2, .cls-6 {
        opacity: .15;
      }

      .cls-3, .cls-6, .cls-8, .cls-10, .cls-13, .cls-18 {
        fill: #ba68c8;
      }

      .cls-3, .cls-25, .cls-23 {
        opacity: .2;
      }

      .cls-4, .cls-8 {
        opacity: .25;
      }

      .cls-5, .cls-7, .cls-9, .cls-14, .cls-20 {
        fill: #fff;
      }

      .cls-5, .cls-11 {
        opacity: .4;
      }

      .cls-7 {
        opacity: .05;
      }

      .cls-9 {
        opacity: .45;
      }

      .cls-10, .cls-26 {
        opacity: .5;
      }

      .cls-27 {
        opacity: .6;
      }

      .cls-28 {
        opacity: .8;
      }

      .cls-15 {
        fill: #263238;
      }

      .cls-16 {
        fill: #455a64;
      }

      .cls-17 {
        fill: #37474f;
      }

      .cls-19 {
        fill: #f0997a;
      }

      .cls-21 {
        fill: #ffbda7;
      }

      .cls-22 {
        fill: #fafafa;
      }
    </style>
  </defs>
  <g id="Background">
    <path id="Background-2" data-name="Background" class="cls-17" d="M473.65,210.23c-17.68-62.19-35.58-96.44-57.98-124.92C320.76-35.39,130.25-31.67,39.51,119.93,13.92,162.69-12.54,274.82,6.47,345.14c.01.03.02.06.04.09,6.5,28.53,28.72,56.1,66.68,78.02,91.62,52.89,240.15,52.89,331.77,0,31.36-18.11,51.98-40.06,61.87-63.23,18.35-37.43,21.03-99.84,6.83-149.78Z"/>
  </g>
  <g id="Floor">
    <g id="Floor-2" data-name="Floor">
      <path id="Floor-3" data-name="Floor" class="cls-17" d="M73.19,231.7c-91.61,52.89-91.61,138.65,0,191.54,91.62,52.89,240.15,52.89,331.77,0,91.61-52.89,91.61-138.65,0-191.54-91.62-52.89-240.15-52.89-331.77,0Z"/>
      <path class="cls-7" d="M253.05,223.79l46.97-27.12c-.55-.08-1.1-.16-1.64-.24l-45.85,26.47.52.89ZM173.49,216.46c-1.25.72-1.25,1.9,0,2.62,1.25.72,3.29.72,4.54,0,1.08-.62,1.22-1.57.45-2.29l24.69-14.25.26-.15v-8.79c-.34.03-.69.06-1.03.09v8.1l-24.95,14.4c-1.24-.44-2.88-.36-3.96.26ZM80.16,277.49c.15.29.4.57.8.79,1.25.72,3.29.72,4.54,0,1.08-.62,1.22-1.57.45-2.29l9.83-5.68,7.54,4.35.52-.89-7.02-4.06,16.38-9.46,7.54,4.35.52-.89-7.02-4.06,18.49-10.67,7.54,4.35.52-.89-7.02-4.06,7.97-4.6,3.6,2.08.52-.89-3.09-1.78,11.32-6.53-.52-.89-11.83,6.83-13.72-7.92c.84-.72.71-1.71-.39-2.34-1.1-.64-2.81-.71-4.06-.23l-1.06-.61v-16.89l-5.12-2.96c-.43.15-.86.3-1.29.45l5.37,3.1v15.69l-21.59-12.47c-.39.17-.78.34-1.18.51l23.88,13.79c-.7.71-.54,1.62.51,2.23,1.05.6,2.63.7,3.86.29l13.76,7.95-7.97,4.6-42.95-24.8c-.38.18-.75.36-1.12.54l43.05,24.85-18.49,10.67-23.83-13.76-.12-.07h-20.69c-.15-.26-.4-.5-.75-.71-1.05-.6-2.63-.7-3.85-.29l-5.52-3.19c-.31.22-.63.43-.94.65l5.38,3.11c-.84.72-.72,1.71.39,2.35,1.25.72,3.29.72,4.54,0,.44-.25.71-.56.84-.88h20.32l23.19,13.39-16.38,9.46-15.06-8.7h-29.65l-9.91-5.72c-.27.24-.54.48-.81.73l9.54,5.51-29.08,16.79c-.44.65-.89,1.3-1.32,1.95l31.57-18.23h29.37l14.31,8.26-9.83,5.68c-1.24-.44-2.88-.36-3.96.26-.4.23-.65.5-.8.79h-37.21l-31.5,18.19c-.23.52-.44,1.05-.66,1.57l32.43-18.73h36.93ZM281.46,194.26c-.58-.06-1.17-.12-1.75-.18l-2.32,1.34.52.89,3.55-2.05ZM155.81,216.43l-14.03,8.1,22.44,12.95.52-.89-20.89-12.06,12.9-7.45c1.02.44,2.37.49,3.47.14l19.55,11.28.52-.89-18.97-10.95c.79-.65.75-1.53-.08-2.17l18.33-10.58-10.06-5.81c-.53.09-1.05.19-1.58.28l9.57,5.52-17.4,10.04c-1.03-.3-2.28-.26-3.25.13l-16.49-9.52c-.47.13-.93.26-1.4.39l16.92,9.77c-.51.53-.53,1.17-.06,1.71ZM41.9,350.03l35.42-20.45-.52-.89-35.18,20.31h-15.59l-15.54,8.97c.13.32.26.65.39.97l15.43-8.91h15.59ZM390.25,289.24l.12-.07h13.79l69.47,40.11c0-.39.02-.79.02-1.18l-24.1-13.91,4.23-2.44v-11.54l12.24-7.07c-.14-.32-.28-.63-.42-.95l-12.59,7.27-.26.15v11.54l-4.23,2.44-19.02-10.98v-8.75l18.13-10.47.26-.15v-16.89l.39-.23c-.23-.26-.46-.53-.7-.79l-41.31,23.85-1.71-.99-.12-.07h-12.28l49.77-28.74c-.25-.25-.5-.51-.75-.76l-51.09,29.49h-25.79l-1.04-.6,31.67-18.28-.52-.89-32.19,18.58-15.97-9.22h1.34l43.49-25.11h20.36c.15.29.4.57.8.79,1.25.72,3.29.72,4.54,0,1.08-.62,1.22-1.57.45-2.29l9.09-5.25c-.3-.23-.59-.45-.89-.68l-9.23,5.33c-1.24-.44-2.88-.36-3.96.26-.4.23-.65.5-.8.79h-20.64l-43.49,25.11h-2.85l-17.99-10.39,50-28.87h29.65l4.27-2.47c-.33-.21-.66-.41-.99-.62l-3.56,2.05h-29.65l-50.76,29.31-15.14-8.74,63-36.37c1.07.38,2.43.37,3.48-.03l16.59,9.58,4.27-2.47c-.36-.19-.71-.39-1.07-.57l-3.2,1.85-15.6-9.01c.5-.51.56-1.12.16-1.65-.87-.37-1.76-.73-2.64-1.09-.65-.03-1.31.03-1.89.22l-5.44-3.14c-1.88-.71-3.78-1.41-5.68-2.09l10.04,5.8c-.7.6-.72,1.39-.06,2.01l-63,36.37-15.13-8.74,6.15-3.55.26-.15v-16.65l38.67-22.32c-.47-.13-.93-.26-1.4-.39l-59.13,34.14-3.88-2.24-.12-.07h-20.73l34.24-19.77h15.59l24.88-14.36c-.49-.12-.97-.24-1.46-.35l-23.7,13.68h-15.59l-35.42,20.45.2.35h-7.66l-18.64-10.76,34.54-19.94.26-.15v-12.92c-.34-.02-.69-.03-1.03-.05v12.37l-34.79,20.09-3.21-1.85-.52.89,2.69,1.56-16.38,9.46-3.21-1.85-.52.89,2.69,1.56-17.65,10.19-.26.15v.66l-3.79-2.19-.52.89,4.3,2.48v9.2l-8.85-5.11-.52.89,9.37,5.41v1.28l-14.58,8.42-13.17-7.6-.52.89,12.65,7.31-14.51,8.38-13.17-7.6-.52.89,12.65,7.31-62.18,35.9h-23.29l-42.08,24.3v-15.45l208.5-120.38.26-.15v-9.74c-.34,0-.69,0-1.03,0v9.13l-162.95,94.08h-32.33l-37.54,21.68c-.06.43-.12.86-.17,1.29l37.99-21.93h30.26l-43.76,25.26-.26.15v16.65l-21.33,12.32c.1.34.21.67.32,1.01l64.41-37.19h23.29l62.94-36.34,7.2,4.16-17.42,10.06c-1.26-.53-3.02-.48-4.16.18-1.25.72-1.25,1.9,0,2.62,1.08.62,2.72.71,3.96.26l4.34,2.51-12.79,7.39-.26.15v13.53l-70.89,40.93-.26.15v19.95l-15.96,9.21c-1.24-.44-2.88-.36-3.96.26-.4.23-.65.5-.8.79h-16.73c.31.35.64.69.96,1.03h15.77c.08.16.19.31.35.46l-9.98,5.76c.26.25.52.49.78.74l10.23-5.91c1.24.44,2.88.36,3.96-.26,1.08-.62,1.22-1.57.45-2.29l15.7-9.06.26-.15v-19.95l70.89-40.93.26-.15v-13.53l13.05-7.54,25.03,14.45-87.87,50.73-.26.15v21.89l-39.56,22.84c.29.23.59.45.89.68l39.45-22.78.26-.15v-21.89l88.13-50.88,11.23,6.49-15.41,8.9-.26.15v22.92l-105.73,61.05,18.33,10.58c-.84.64-.87,1.51-.08,2.17l-4.88,2.82c.36.19.73.37,1.1.56l4.88-2.82c1.09.35,2.45.3,3.47-.14l12.9,7.45-5.19,2.99c.4.17.8.33,1.2.5l6.05-3.49-14.03-8.1c.46-.54.44-1.18-.06-1.71l28.26-16.32.26-.15v-11.54l100.25-57.88,13.22,7.63-89.96,51.94-.26.15v15.45l-18.13,10.47-.26.15v16.89l-6.39,3.69c.44.15.88.29,1.31.43l92.82-53.59.26-.15v-15.91l35.86-20.7.97.56v22.92l14.25,8.22-17.48,10.09h-12.31l-94.39,54.5c.47.12.95.25,1.43.37l93.24-53.83h12.31l18.24-10.53,13.2,7.62c-17.65,10.19-29.87,17.25-30.86,17.82-.98.15-10.61.23-15.65.23h-.14l-73.84,42.53c.51.11,1.01.22,1.52.32l72.6-41.82c2.12,0,15.39,0,15.97-.33.27-.16,12.94-7.47,31.44-18.15l13.22,7.63-46.28,26.72h-19.19l-31.23,18.19h-8.39l-17.05,9.84c.53.09,1.07.17,1.61.26l15.72-9.07h8.39l31.23-18.19h19.19l47.03-27.15,25.41,14.67h-32.97l-44.08,25.45c-1.24-.44-2.88-.36-3.95.26-1.25.72-1.25,1.9,0,2.62,1.25.72,3.29.72,4.54,0,1.08-.62,1.22-1.57.45-2.29l43.32-25.01h62.61l-30.77,17.76h-32.33l-45.46,26.25c.7,0,1.39,0,2.09-.01l43.65-25.2h30.26l-40.52,23.4c.83-.08,1.67-.17,2.5-.25l72.64-41.94h9.95l5.57,3.21-16.61,9.59c-1.24-.44-2.88-.36-3.96.26-1.25.72-1.25,1.9,0,2.62,1.25.72,3.29.72,4.54,0,1.08-.62,1.22-1.57.45-2.29l16.61-9.59,17.38,10.03c.38-.18.76-.36,1.13-.54l-24.72-14.27h0s0,0,0,0l-.09-.05-.03-.02h0l-73.45-42.24c.76-.71.62-1.66-.46-2.28-1.25-.72-3.29-.72-4.54,0-1.25.72-1.25,1.9,0,2.62,1.08.62,2.73.71,3.96.26l72.41,41.64h-38.06l-70.2-40.53v-22.92l-.97-.56,9.14-5.28,136.55,78.84c.36-.19.71-.38,1.07-.57l-136.59-78.86,13.22-7.63c52.67,30.41,125.38,72.39,126.04,72.77.81.47,11.33.36,19.4.2.5-.35,1-.71,1.49-1.07-8.76.18-19.48.28-20.38-.03-.66-.38-72.9-42.09-125.53-72.47l11.54-6.66c.14.15.31.29.53.42,1.08.62,2.72.71,3.96.26l109.89,63.45.12.07h26.64l6.98,4.03c.27-.24.54-.48.81-.73l-7.39-4.26-.12-.07h-26.64l-98.54-56.89h29.56l57.9,33.43c-.77.72-.62,1.67.45,2.29,1.25.72,3.29.72,4.54,0s1.25-1.9,0-2.62c-1.08-.62-2.72-.71-3.96-.26l-58.54-33.8-.12-.07h-31.62l-8.92-5.15c.77-.72.62-1.66-.45-2.29-.22-.13-.46-.22-.72-.3l33.41-19.29,110.61,63.86v15.91l6.58,3.8c.25-.25.51-.5.75-.76l-6.3-3.64v-15.91l-110.74-63.93-.45-.79-.45.26-.45-.26-.12-.07h-25.25l25.82-14.91c2.52,1.45,82.5,47.63,134.82,77.84.18-.29.36-.59.53-.88-49.2-28.4-122.85-70.93-133.58-77.12,4.38-.16,15.71.02,23.17.2h.15s1.74-1,1.74-1l114.55,66.14c.14-.32.27-.64.4-.96l-113.92-65.77,8.92-5.15,1.68.97h0s0,0,0,0l.09.05.03.02h0l84.65,48.68c-.75.71-.61,1.66.46,2.27,1.25.72,3.29.72,4.54,0,1.25-.72,1.25-1.9,0-2.62-1.08-.62-2.74-.71-3.98-.25l-83.6-48.08h24.11l.04.07ZM428.47,302.01l-6.54-3.78,6.54-3.78v7.56ZM446.86,266.96v15.69l-25.96,14.99-13.59-7.85,39.55-22.84ZM325.44,266.9l16.96,9.79h-16.08l-.88.51-.76-.44-.12-.07h-16.08l16.96-9.79ZM216.69,291.16l-18.56,10.72v-2.26l-23.07-13.32,27.94-16.13v13.09l13.69,7.91ZM206.28,268.26l25.03,14.45-13.59,7.85-13.69-7.91v-13.09l2.25-1.3ZM204.03,268.37v-1.41l1.22.7-1.22.71ZM224,307.61c-.45-.26-1-.42-1.58-.5v-3.9s7.58-4.37,7.58-4.37l28.99,16.74-12.35,7.13c-10.56-6.1-18.49-10.68-22.19-12.81.77-.71.62-1.66-.45-2.29ZM243.58,289.79l-13.59,7.85-11.23-6.49,13.59-7.85,11.23,6.49ZM233.38,282.71l7.97-4.6,17.37,10.03h-12.28l-1.83,1.06-11.23-6.49ZM228.95,298.24l-6.54,3.78v-7.56s6.54,3.78,6.54,3.78ZM231.02,298.24l13.59-7.85,28.99,16.74-13.59,7.85-28.99-16.74ZM245.65,289.79l1.07-.62h13.79l22.09,12.76-7.97,4.6-28.99-16.74ZM242.38,277.51l12.36-7.14h3.16l29.72,17.16-1.04.6h-25.79l-18.41-10.63ZM259.96,270.38h27.1l1.75-1.01,14.35,8.28.12.07h1.34l-15.97,9.22-28.69-16.56ZM286.79,269.35h-28.61l-.82-.48,15.3-8.83,15.13,8.74-.99.57ZM241.35,276.92l-25.03-14.45,17-9.82c.15.28.4.54.78.76,1.25.72,3.29.72,4.54,0,.4-.23.65-.5.8-.79h20.36l11.82,6.82-30.27,17.48ZM240.32,277.51l-7.97,4.6-25.03-14.45,7.97-4.6,25.03,14.45ZM198.13,303.06l19.59-11.31,3.66,2.11v8.75s-19.02,10.98-19.02,10.98l-4.23-2.44v-8.09ZM221.38,303.8v3.28c-.7.04-1.38.21-1.92.52-1.25.72-1.25,1.9,0,2.62,1.08.62,2.72.71,3.96.26,3.37,1.95,11.36,6.56,22.18,12.81l-13.22,7.63-28.99-16.74,17.99-10.39ZM246.63,323.89c4.06,2.34,8.5,4.9,13.22,7.63l-13.22,7.63-13.22-7.63,13.22-7.63ZM247.67,323.3l12.35-7.13,5.89,3.4.52-.89-5.37-3.1,13.59-7.85,13.22,7.63-26.97,15.57c-4.72-2.72-9.15-5.28-13.22-7.63ZM275.67,307.13l7.97-4.6,13.22,7.63-7.97,4.6-13.22-7.63ZM283.64,301.33l-21.06-12.16h24.28l1.8-1.04,8.92,5.15-13.94,8.05ZM289.69,287.54l17-9.82h17.59l.13.07-25.8,14.89-8.92-5.15ZM309.27,257.56l15.14,8.74-17.99,10.39h-2.85l-13.71-7.92,19.42-11.21ZM308.23,256.96l-19.42,11.21-15.13-8.74,19.42-11.21,15.13,8.74ZM299.51,227.88v15.46l-6.41,3.7-13.39-7.73,19.79-11.43ZM278.69,239.9l13.39,7.73-19.42,11.21-12.46-7.19-.12-.07h-1.62l20.23-11.68ZM225.36,226.24l19.39,11.2h29.65l3.25,1.88-20.51,11.84h-18.04c-.13-.13-.28-.25-.47-.36-1.08-.62-2.72-.71-3.96-.26l-25.7-14.83,16.38-9.46ZM190.04,246.63l17.91-10.34,25.7,14.83c-.1.09-.19.19-.26.29l-18.1,10.45-25.24-14.57v-.66ZM190.04,248.49l24.21,13.98-7.97,4.6-16.24-9.38v-9.2ZM189.78,260.31l.26-.15v-1.28l12.95,7.48v2.6l-28.97,16.73-5.86-3.39,15.54-8.98-8.23-4.75,14.32-8.27ZM159.92,277.55l14.51-8.38,7.2,4.16-14.51,8.38-7.2-4.16ZM149.51,294.83c.6-.55.63-1.25.12-1.82l17.5-10.1,5.86,3.39-19.14,11.05-4.34-2.51ZM154.88,297.93l19.14-11.05,23.07,13.32v2.26l-17.18,9.92-25.03-14.45ZM180.95,312.98l16.15-9.32v8.09l4.23,2.44-9.14,5.28-11.23-6.49ZM121.18,395.13l-.26.15v11.54l-28.46,16.43c-.97-.39-2.21-.43-3.25-.13l-17.4-10.04,104.44-60.3.26-.15v-22.92l15.67-9.05,28.99,16.74-100,57.73ZM193.22,320.06l9.14-5.28,28.99,16.74-9.14,5.28-28.99-16.74ZM223.24,337.4l9.14-5.28,13.22,7.63-9.14,5.28-13.22-7.63ZM214.05,374.4l-.26.15v15.91l-85.94,49.62v-15.69l62.39-36.02-.52-.89-43.49,25.11v-14.26l90.22-52.09,13.2,7.62-35.6,20.56ZM250.69,353.25l-13.2-7.62,9.14-5.28,13.2,7.62-9.14,5.28ZM260.86,347.37l-13.2-7.62,13.22-7.63c4.2,2.43,8.62,4.98,13.2,7.62l-13.22,7.63ZM289.97,330.36c-.64.06-1.26.23-1.75.51-.6.35-.9.79-.93,1.25l-12.17,7.02c-4.57-2.64-8.99-5.19-13.2-7.62l26.97-15.57,1.08.62v13.78ZM324.23,310.79l-33.23,19.18v-13.99l-1.08-.62,7.97-4.6.06.04h26.27ZM297.89,309.56l-13.22-7.63,13.94-8.05,1.61.93.13.07h.15c7.48-.19,18.86-.37,23.18-.21l-25.79,14.89ZM350.27,293.85c-6.86-.17-21.9-.48-24.82-.04-2.92-.44-17.97-.13-24.83.04l-.97-.56,25.8-14.89,25.8,14.89-.97.56ZM352.27,292.69l-25.8-14.89.13-.07h17.59l17,9.82-8.92,5.15ZM51.9,369.32l-23.73,13.7h-3.1c.27.34.53.69.8,1.03h2.58l23.97-13.84-.52-.89ZM76.75,341.85l-57.42,33.15c.19.29.38.58.57.86l57.36-33.12-.52-.89Z"/>
    </g>
  </g>
  <g id="Arrow">
    <g id="Arrow-2" data-name="Arrow">
      <path class="cls-3" d="M201.63,257.61l31.69-18.31c2.23-1.32.76-3.44-2.19-3.61l-132.37-8.67-5.74,3.31,15.01,76.42c.51,1.99,4.44,2.41,6.26,1.26l31.72-18.3,186.33,162.07c26.37-6.59,51.07-16.1,72.61-28.54,31.02-17.91,51.52-39.59,61.53-62.48l-264.86-103.16Z"/>
      <path class="cls-6" d="M110.58,329.19c-10.22,0-18.65-6.17-20.99-15.34l-.12-.48-15.15-77.13c-1.12-6.07.45-12.2,4.29-16.81,4.11-4.93,10.38-7.65,17.66-7.65.85,0,1.74.04,2.65.11l132.24,8.66c9.47.53,17.3,6.73,19.42,15.42,2.02,8.3-1.71,16.9-9.3,21.39l-31.85,18.41-55.62,32.11-31.56,18.2c-4.31,2.58-8.72,3.12-11.67,3.12Z"/>
      <path class="cls-6" d="M110.58,320.26c-6.06,0-11.02-3.46-12.34-8.62l-.06-.24-15.08-76.77c-.64-3.51.2-6.88,2.37-9.48,1.69-2.02,4.93-4.44,10.8-4.44.64,0,1.31.03,2.01.08l132.3,8.66c5.56.31,10.14,3.78,11.32,8.62,1.1,4.53-.93,9.08-5.17,11.59l-31.77,18.36-55.62,32.11-31.62,18.24c-2.57,1.55-5.29,1.88-7.14,1.88h0Z"/>
      <g>
        <path class="cls-11" d="M445.8,391.56l-204.43-108.75h0l-39.73-21.14,31.69-18.31c2.18-1.26.87-3.41-2.19-3.61l-50.36-3.29c-.4-.58-1-1.12-1.81-1.58-3.21-1.85-8.41-1.85-11.62,0-3.21,1.85-3.21,4.86,0,6.71,3.21,1.85,8.41,1.85,11.62,0,.26-.15.5-.31.72-.48l41.4,2.71-31.16,18.01,45.7,24.32-7.72,4.46-50.6-28.44,22.15-12.79c.83-.48.34-1.31-.84-1.38l-79.62-5.22-10.97-6.34,29.7,1.95c.4.5.94.98,1.66,1.39,3.21,1.85,8.41,1.85,11.62,0,3.21-1.85,3.21-4.86,0-6.71-3.21-1.85-8.41-1.85-11.62,0-.35.2-.66.42-.93.65l-34.09-2.24c-.4-.59-1.01-1.14-1.83-1.61-3.21-1.85-8.41-1.85-11.62,0-3.21,1.85-3.21,4.86,0,6.71,2.16,1.25,5.21,1.63,7.96,1.2l16.14,9.32h0l.24.14,24.04,1.58,1.57,8c-.68.21-1.33.46-1.9.79-3.21,1.85-3.21,4.86,0,6.71,3.21,1.85,8.41,1.85,11.62,0,3.21-1.85,3.21-4.86,0-6.71-.81-.47-1.76-.82-2.76-1.05l-1.43-7.28,37.48,2.46-18.13,10.47,60.19,33.83-7.34,4.24-43.97-25.39c.75-1.59.06-3.36-2.11-4.61-3.21-1.85-8.41-1.85-11.62,0-3.21,1.85-3.21,4.86,0,6.71,2.16,1.25,5.21,1.63,7.96,1.2l52.26,30.17-7.35,4.24-7.71-4.45-59.14-35.07-18.13,10.47-3.96-20.23-16.44-9.49c1.05-1.68.42-3.62-1.91-4.97-3.21-1.85-8.41-1.85-11.62,0-3.21,1.85-3.21,4.86,0,6.71.75.44,1.62.76,2.55.99l10.63,54.28c.35,1.77,4.08,2.52,6.26,1.26l31.72-18.3,36.61,22.94,192.87,120.95c10.32-4.27,20.19-9.07,29.46-14.43,16.64-9.61,30.24-20.3,40.84-31.69ZM191.8,315.55l-3.42-2.13-42.13-26.39-31.19,17.99-9.2-46.97,11,6.35,4.01,20.43c-.22.1-.46.19-.67.31-3.21,1.85-3.21,4.86,0,6.71,3.21,1.85,8.41,1.85,11.62,0,2.18-1.26,2.87-3.04,2.09-4.64l12.91-7.46,52.78,31.3-7.82,4.51ZM231.67,292.71l-3.77-2.12,3.77,2.11h0Z"/>
        <g>
          <path class="cls-18" d="M235.86,282.19l5.5-3.45-39.73-21.14,31.69-18.31c2.18-1.26.87-3.41-2.19-3.61l-57.55-3.76-.91,4.66,48.4,3.16-31.16,18.01,45.94,24.45Z"/>
          <polygon class="cls-18" points="97.92 231.7 144.71 234.77 145.62 230.11 98.83 227.04 97.92 231.7"/>
          <path class="cls-18" d="M188.6,309.48l-5.97,3.18-36.61-22.94-31.72,18.3c-2.18,1.26-5.91.5-6.26-1.26l-11.61-59.24,8.07-.53,10.57,53.95,31.19-17.99,42.34,26.53Z"/>
          <path class="cls-18" d="M226.5,292.28l5.66-3.36-54.86-30.83,22.15-12.79c.83-.48.34-1.31-.84-1.38l-79.62-5.22-20.23-11.68c-4.4-.08-6.28.53-5.74,3.31l22.23,12.84,68.62,4.5-18.13,10.47,60.75,34.14Z"/>
          <path class="cls-18" d="M115.01,243.03l7.14-4.12,76.46,5.01c1.17.08,1.67.9.84,1.38l-22.15,12.79,54.86,30.83-5.66,3.36-60.75-34.14,18.13-10.47-68.62-4.5-.24-.14Z"/>
          <path class="cls-18" d="M167.34,237.52c3.21,1.85,8.41,1.85,11.62,0,3.21-1.85,3.21-4.86,0-6.71-3.21-1.85-8.41-1.85-11.62,0-3.21,1.85-3.21,4.86,0,6.71Z"/>
          <path class="cls-18" d="M139.38,235.7c3.21,1.85,8.41,1.85,11.62,0,3.21-1.85,3.21-4.86,0-6.71-3.21-1.85-8.41-1.85-11.62,0-3.21,1.85-3.21,4.86,0,6.71Z"/>
          <path class="cls-18" d="M94.86,251.49c3.21,1.85,8.41,1.85,11.62,0,3.21-1.85,3.21-4.86,0-6.71s-8.41-1.85-11.62,0c-3.21,1.85-3.21,4.86,0,6.71Z"/>
          <path class="cls-18" d="M120.21,287.77c3.21,1.85,8.41,1.85,11.62,0,3.21-1.85,3.21-4.86,0-6.71-3.21-1.85-8.41-1.85-11.62,0-3.21,1.85-3.21,4.86,0,6.71Z"/>
          <path class="cls-18" d="M160.9,272.91c3.21,1.85,8.41,1.85,11.62,0,3.21-1.85,3.21-4.86,0-6.71-3.21-1.85-8.41-1.85-11.62,0-3.21,1.85-3.21,4.86,0,6.71Z"/>
          <path class="cls-18" d="M138.97,260.25c3.21,1.85,8.41,1.85,11.62,0,3.21-1.85,3.21-4.86,0-6.71s-8.41-1.85-11.62,0c-3.21,1.85-3.21,4.86,0,6.71Z"/>
          <path class="cls-18" d="M90.91,232.5c3.21,1.85,8.41,1.85,11.62,0,3.21-1.85,3.21-4.86,0-6.71-3.21-1.85-8.41-1.85-11.62,0s-3.21,4.86,0,6.71Z"/>
          <polygon class="cls-18" points="141.82 257.61 148.74 257.16 145.55 240.9 138.45 240.4 141.82 257.61"/>
          <path class="cls-18" d="M122.29,287.98l-5.43-27.66-18.18-10.5,4.92-2.84,21.22,12.25,3.96,20.23,18.13-10.47,59.14,35.07-5.82,3.27-53.4-31.67-22.15,12.79c-.84.48-2.26.19-2.39-.48Z"/>
          <polygon class="cls-18" points="221.12 304.28 226.86 300.97 172.31 269.48 166.57 272.79 221.12 304.28"/>
          <polygon class="cls-18" points="469.07 399.88 392.35 444.18 182.63 312.66 188.37 309.34 191.8 311.48 199.62 306.98 205.35 303.66 213.77 308.53 221.11 304.29 226.86 300.97 218.59 296.2 225.94 291.95 231.68 288.64 227.89 286.52 241.36 278.75 469.07 399.88"/>
        </g>
        <path class="cls-5" d="M241.36,278.75l-39.72-21.15,31.69-18.31c2.17-1.26.87-3.41-2.19-3.61l-50.37-3.29c-.4-.57-1-1.12-1.81-1.58-3.21-1.86-8.41-1.86-11.62,0-3.21,1.85-3.21,4.85,0,6.7,3.2,1.85,8.4,1.85,11.62,0,.26-.15.49-.32.71-.47l41.4,2.7-31.15,18.01,45.69,24.31-7.71,4.46,3.78,2.12h0s-3.77-2.12-3.77-2.12h0l-50.59-28.43,22.15-12.79c.83-.48.34-1.3-.84-1.38l-79.62-5.22-10.97-6.34,29.7,1.95c.4.5.95.98,1.66,1.39,3.21,1.86,8.41,1.86,11.62,0,3.21-1.85,3.21-4.85,0-6.7-3.2-1.86-8.4-1.86-11.62,0-.35.2-.65.42-.93.65l-34.09-2.24c-.41-.58-1.01-1.14-1.83-1.61-3.21-1.85-8.41-1.85-11.62,0-3.21,1.86-3.21,4.85,0,6.71,2.16,1.25,5.21,1.63,7.96,1.2l16.14,9.32.25.15,24.03,1.57,1.57,8c-.67.22-1.32.46-1.9.8-3.21,1.85-3.21,4.85,0,6.7,3.2,1.86,8.4,1.86,11.62,0,3.2-1.85,3.2-4.85,0-6.7-.82-.47-1.76-.82-2.77-1.05l-1.42-7.29,37.48,2.46-18.12,10.46,60.19,33.83-7.35,4.24-43.97-25.39c.76-1.59.06-3.36-2.11-4.61-3.2-1.86-8.41-1.86-11.62,0-3.21,1.85-3.21,4.85,0,6.7,2.16,1.25,5.21,1.63,7.96,1.21l52.26,30.17-7.35,4.24-7.7-4.45-59.15-35.08-18.13,10.46-3.95-20.23-16.45-9.49c1.05-1.68.43-3.62-1.91-4.96-3.2-1.86-8.4-1.86-11.62,0-3.2,1.85-3.2,4.85,0,6.7.75.43,1.62.76,2.55.99l10.63,54.27c.35,1.77,4.08,2.52,6.26,1.27l31.72-18.29,36.61,22.94,209.72,131.51,76.72-44.3-227.71-121.12ZM191.8,311.48l-3.41-2.14-42.13-26.4-31.19,17.99-9.19-46.97,10.99,6.35,4.01,20.42c-.23.11-.46.2-.67.32-3.2,1.85-3.2,4.85,0,6.7,3.21,1.86,8.41,1.86,11.63,0,2.17-1.26,2.87-3.04,2.09-4.64l12.92-7.45,52.78,31.3-7.82,4.51Z"/>
      </g>
    </g>
  </g>
  <g id="Chip">
    <g id="Chip-2" data-name="Chip">
      <g id="Shadow">
        <g>
          <path class="cls-6" d="M19.81,119.88l-.26,83.44c0,1.54,1.08,2.17,2.42,1.41l72.66-41.66c1.34-.77,2.43-2.64,2.43-4.19v-83.59c0-1.54-1.08-2.17-2.42-1.4L22.24,115.68c-1.34.77-2.43,2.65-2.43,4.19Z"/>
          <path class="cls-8" d="M26.24,123.13l-.22,69.53c0,1.29.9,1.81,2.01,1.17l60.55-34.71c1.12-.64,2.02-2.2,2.02-3.49v-69.66c0-1.29-.9-1.81-2.02-1.17l-60.33,34.83c-1.11.64-2.02,2.21-2.03,3.5Z"/>
          <path class="cls-6" d="M31.61,125.84l-.18,57.94c0,1.07.75,1.51,1.68.98l50.46-28.93c.93-.53,1.68-1.84,1.68-2.91v-58.05c0-1.07-.75-1.51-1.68-.97l-50.27,29.03c-.93.54-1.68,1.84-1.69,2.91Z"/>
        </g>
        <g>
          <g class="cls-26">
            <path class="cls-18" d="M32.36,185.76c-.3,0-.58-.07-.83-.22-.56-.33-.88-.97-.88-1.76l.18-57.94c0-1.34.92-2.91,2.08-3.58l50.28-29.02c.69-.4,1.41-.44,1.97-.12.56.32.88.96.88,1.76v58.05c0,1.34-.91,2.91-2.07,3.58l-50.46,28.93c-.38.22-.77.33-1.14.33ZM84.32,94.45c-.06,0-.18.02-.36.13l-50.27,29.02c-.69.4-1.3,1.45-1.3,2.24h0l-.18,57.94c0,.29.08.4.1.42.02.01.16.03.41-.12l50.46-28.93c.69-.39,1.29-1.44,1.29-2.23v-58.05c0-.29-.08-.4-.11-.42,0,0-.02,0-.05,0ZM31.61,125.84h0,0Z"/>
          </g>
          <path class="cls-18" d="M32.36,185.38c-.23,0-.44-.06-.64-.17-.44-.26-.68-.76-.68-1.43l.18-57.94c0-1.21.83-2.64,1.88-3.25l50.27-29.03c.57-.33,1.13-.38,1.58-.12.44.26.69.76.69,1.42v58.05c0,1.22-.82,2.64-1.88,3.24l-50.46,28.93c-.33.19-.65.28-.94.28ZM84.32,94.06c-.16,0-.35.06-.56.18l-50.27,29.02c-.81.47-1.49,1.65-1.49,2.58h0l-.18,57.94c0,.37.11.64.3.75.19.11.48.07.8-.11l50.46-28.93c.81-.46,1.49-1.64,1.49-2.57v-58.05c0-.37-.11-.64-.3-.75-.07-.04-.15-.06-.24-.06ZM31.61,125.84h0,0Z"/>
        </g>
        <g class="cls-24">
          <path class="cls-10" d="M31.61,125.84l-.18,57.94c0,1.07.75,1.51,1.68.98l50.46-28.93c.93-.53,1.68-1.84,1.68-2.91v-58.05c0-1.07-.75-1.51-1.68-.97l-50.27,29.03c-.93.54-1.68,1.84-1.69,2.91Z"/>
        </g>
        <path class="cls-23" d="M35.01,127.55l-.16,50.61c0,.94.65,1.32,1.47.85l44.07-25.26c.81-.47,1.47-1.6,1.47-2.54v-50.7c0-.94-.66-1.32-1.47-.85l-43.91,25.35c-.81.47-1.47,1.61-1.47,2.54Z"/>
      </g>
      <g id="Chip-3" data-name="Chip">
        <g>
          <path class="cls-18" d="M85.29,121.32l-2.35-4.06,12.84-7.43h0s0,0,0,0c1.12-.65,2.56-.26,3.21.86.65,1.12.26,2.56-.86,3.21,0,0,0,0,0,0h0s-12.84,7.43-12.84,7.43Z"/>
          <path class="cls-18" d="M85.29,131.54l-2.35-4.06,12.84-7.43h0s0,0,0,0c1.12-.65,2.56-.26,3.21.86.65,1.12.26,2.56-.86,3.21,0,0,0,0,0,0h0s-12.84,7.43-12.84,7.43Z"/>
          <path class="cls-18" d="M85.3,141.76l-2.35-4.06,12.84-7.43h0s0,0,0,0c1.12-.65,2.56-.26,3.21.86.65,1.12.26,2.56-.86,3.21,0,0,0,0,0,0h0s-12.84,7.43-12.84,7.43Z"/>
          <path class="cls-18" d="M85.3,151.97l-2.35-4.06,12.84-7.43h0s0,0,0,0c1.12-.65,2.56-.26,3.21.86.65,1.12.26,2.56-.86,3.21,0,0,0,0,0,0h0s-12.84,7.43-12.84,7.43Z"/>
        </g>
        <g class="cls-28">
          <g>
            <path class="cls-20" d="M85.29,121.32l-2.35-4.06,12.84-7.43h0s0,0,0,0c1.12-.65,2.56-.26,3.21.86.65,1.12.26,2.56-.86,3.21,0,0,0,0,0,0h0s-12.84,7.43-12.84,7.43Z"/>
            <path class="cls-20" d="M85.29,131.54l-2.35-4.06,12.84-7.43h0s0,0,0,0c1.12-.65,2.56-.26,3.21.86.65,1.12.26,2.56-.86,3.21,0,0,0,0,0,0h0s-12.84,7.43-12.84,7.43Z"/>
            <path class="cls-20" d="M85.3,141.76l-2.35-4.06,12.84-7.43h0s0,0,0,0c1.12-.65,2.56-.26,3.21.86.65,1.12.26,2.56-.86,3.21,0,0,0,0,0,0h0s-12.84,7.43-12.84,7.43Z"/>
            <path class="cls-20" d="M85.3,151.97l-2.35-4.06,12.84-7.43h0s0,0,0,0c1.12-.65,2.56-.26,3.21.86.65,1.12.26,2.56-.86,3.21,0,0,0,0,0,0h0s-12.84,7.43-12.84,7.43Z"/>
          </g>
        </g>
        <g class="cls-25">
          <polygon class="cls-18" points="85.29 121.32 82.94 117.26 93.87 110.95 93.87 116.37 85.29 121.32"/>
          <polygon class="cls-18" points="93.87 141.61 93.87 147.03 85.3 151.97 82.96 147.91 93.87 141.61"/>
          <polygon class="cls-18" points="85.3 141.76 82.95 137.69 93.87 131.39 93.87 136.81 85.3 141.76"/>
          <polygon class="cls-18" points="85.29 131.54 82.95 127.48 93.87 121.17 93.87 126.59 85.29 131.54"/>
        </g>
        <g>
          <path class="cls-18" d="M56.22,171.67h-4.69v14.84s0,0,0,0c0,0,0,0,0,0,0,1.3,1.05,2.35,2.35,2.35,1.3,0,2.35-1.05,2.35-2.35,0,0,0,0,0,0h0v-14.84Z"/>
          <path class="cls-18" d="M65.07,166.56h-4.69s-.01,14.84-.01,14.84h0s0,0,0,0c0,1.3,1.05,2.35,2.35,2.35,1.3,0,2.35-1.05,2.35-2.35,0,0,0,0,0,0h0v-14.84Z"/>
          <path class="cls-18" d="M73.92,161.46h-4.69v14.84s0,0,0,0c0,0,0,0,0,0,0,1.3,1.05,2.35,2.35,2.35s2.35-1.05,2.35-2.35c0,0,0,0,0,0h0v-14.84Z"/>
          <path class="cls-18" d="M82.77,156.35h-4.69v14.84s-.01,0-.01,0c0,0,0,0,0,0,0,1.3,1.05,2.35,2.35,2.35s2.35-1.05,2.35-2.35c0,0,0,0,0,0h0s.01-14.84.01-14.84Z"/>
        </g>
        <g class="cls-28">
          <g>
            <path class="cls-20" d="M56.22,171.67h-4.69v14.84s0,0,0,0c0,0,0,0,0,0,0,1.3,1.05,2.35,2.35,2.35,1.3,0,2.35-1.05,2.35-2.35,0,0,0,0,0,0h0v-14.84Z"/>
            <path class="cls-20" d="M65.07,166.56h-4.69s-.01,14.84-.01,14.84h0s0,0,0,0c0,1.3,1.05,2.35,2.35,2.35,1.3,0,2.35-1.05,2.35-2.35,0,0,0,0,0,0h0v-14.84Z"/>
            <path class="cls-20" d="M73.92,161.46h-4.69v14.84s0,0,0,0c0,0,0,0,0,0,0,1.3,1.05,2.35,2.35,2.35s2.35-1.05,2.35-2.35c0,0,0,0,0,0h0v-14.84Z"/>
            <path class="cls-20" d="M82.77,156.35h-4.69v14.84s-.01,0-.01,0c0,0,0,0,0,0,0,1.3,1.05,2.35,2.35,2.35s2.35-1.05,2.35-2.35c0,0,0,0,0,0h0s.01-14.84.01-14.84Z"/>
          </g>
        </g>
        <g class="cls-25">
          <polygon class="cls-18" points="56.22 171.67 51.53 171.67 51.53 184.28 56.22 181.57 56.22 171.67"/>
          <polygon class="cls-18" points="78.08 168.95 82.77 166.24 82.77 156.35 78.08 156.35 78.08 168.95"/>
          <polygon class="cls-18" points="73.92 161.46 69.23 161.46 69.23 174.06 73.92 171.35 73.92 161.46"/>
          <polygon class="cls-18" points="65.07 166.56 60.38 166.56 60.38 179.17 65.07 176.46 65.07 166.56"/>
        </g>
        <g>
          <g>
            <path class="cls-18" d="M46.62,181.74c-.51-.3-.83-.93-.83-1.83v-44.57c0-.9.31-1.89.82-2.78l-9.44-5.45c-.51.89-.83,1.89-.83,2.79v42.65c0,1.8,1.27,4,2.83,4.9l7.44,4.3Z"/>
            <path class="cls-1" d="M46.62,181.74c-.51-.3-.83-.93-.83-1.83v-44.57c0-.9.31-1.89.82-2.78l-9.44-5.45c-.51.89-.83,1.89-.83,2.79v42.65c0,1.8,1.27,4,2.83,4.9l7.44,4.3Z"/>
            <path class="cls-18" d="M48.62,130.43l38.59-22.26c1.56-.9,2.83-.17,2.83,1.63v44.56c0,1.8-1.27,4-2.83,4.9l-38.59,22.28c-1.56.9-2.83.17-2.83-1.63v-44.57c0-1.8,1.27-4,2.83-4.9Z"/>
            <path class="cls-14" d="M48.62,130.43l38.59-22.26c1.56-.9,2.83-.17,2.83,1.63v44.56c0,1.8-1.27,4-2.83,4.9l-38.59,22.28c-1.56.9-2.83.17-2.83-1.63v-44.57c0-1.8,1.27-4,2.83-4.9Z"/>
            <path class="cls-18" d="M89.13,107.92l-7.36-4.25c-1.56-.9-4.1-.9-5.65,0l-36.94,21.33c-.78.45-1.49,1.22-2,2.11l9.44,5.45c.51-.89,1.22-1.67,2.01-2.12l38.59-22.26c.74-.43,1.42-.48,1.92-.24Z"/>
            <path class="cls-2" d="M89.17,107.95l-7.4-4.27c-1.56-.9-4.1-.9-5.65,0l-36.94,21.33c-.78.45-1.49,1.22-2,2.11l9.44,5.45c.51-.89,1.26-1.65,2.05-2.1l38.58-22.28c.74-.43,1.42-.47,1.93-.23Z"/>
          </g>
          <path class="cls-20" d="M52.08,173.58c-.24,0-.46-.06-.66-.17-.46-.27-.72-.8-.72-1.5v-34.71c0-1.29.88-2.8,1.99-3.44l30.04-17.33c.6-.35,1.19-.39,1.66-.13.46.27.72.8.72,1.5v34.69c0,1.29-.87,2.8-1.98,3.44l-30.05,17.35c-.34.2-.68.3-1,.3ZM83.73,116.91c-.18,0-.39.07-.61.19l-30.04,17.33c-.87.5-1.6,1.77-1.6,2.77v34.71c0,.4.11.7.32.82.21.12.53.08.88-.13l30.05-17.35c.87-.5,1.6-1.77,1.6-2.77v-34.69c0-.4-.13-.7-.34-.82-.08-.04-.17-.07-.27-.07Z"/>
          <path class="cls-20" d="M57.53,163.41c-.14,0-.27-.03-.39-.1-.26-.15-.41-.45-.41-.83l.08-22.94c0-.53.49-1.38.95-1.64l19.74-11.39c.32-.19.66-.2.92-.05.26.15.41.45.41.82v22.79c0,.62-.41,1.33-.95,1.64l-19.82,11.55c-.18.1-.36.16-.53.16ZM78.02,127.12s-.05,0-.14.06l-19.74,11.39c-.22.12-.56.72-.56.97l-.08,22.94c0,.1.02.15.03.15,0,0,.05,0,.14-.06l19.82-11.55c.3-.17.56-.63.56-.97v-22.79c0-.1-.02-.15-.03-.16Z"/>
        </g>
        <g>
          <g>
            <path class="cls-18" d="M29.01,148.69c-1.12.65-2.56.26-3.21-.86-.65-1.12-.26-2.56.86-3.21l12.35-7.07c.3-.17.72-.15,1.17.12.92.53,1.66,1.82,1.66,2.87,0,.53-.19.9-.49,1.07h0l-12.35,7.07Z"/>
            <path class="cls-18" d="M29.01,158.9c-1.12.65-2.56.26-3.21-.86-.65-1.12-.26-2.56.86-3.21,0,0,0,0,0,0h0l12.35-7.07c.3-.17.72-.15,1.17.12.92.53,1.66,1.82,1.66,2.87,0,.53-.19.9-.49,1.07h0l-12.35,7.07h0s0,0,0,0Z"/>
            <path class="cls-18" d="M29.01,169.12c-1.12.65-2.56.26-3.21-.86-.65-1.12-.26-2.56.86-3.21,0,0,0,0,0,0l12.35-7.07h0c.3-.17.72-.15,1.17.12.92.53,1.66,1.82,1.66,2.87,0,.53-.19.9-.49,1.07h0l-12.35,7.07h0s0,0,0,0Z"/>
            <path class="cls-18" d="M25.81,178.48c-.65-1.12-.26-2.56.86-3.21,0,0,0,0,0,0l12.35-7.07c.3-.17.72-.15,1.17.12.92.53,1.66,1.82,1.66,2.87,0,.53-.19.9-.49,1.07h0l-12.35,7.07c-1.12.65-2.56.26-3.21-.86Z"/>
          </g>
          <g>
            <path class="cls-18" d="M51.78,109.24c0-1.3-1.05-2.35-2.35-2.35s-2.35,1.05-2.35,2.35l.05,14.23c0,.35.23.69.69.96.92.53,2.4.53,3.32,0,.46-.26.69-.61.69-.96h0l-.05-14.23Z"/>
            <path class="cls-18" d="M60.63,104.14c0-1.3-1.05-2.35-2.35-2.35s-2.35,1.05-2.35,2.35h0s.05,14.23.05,14.23c0,.35.23.69.69.96.92.53,2.4.53,3.32,0,.46-.26.69-.61.69-.96h0l-.05-14.23h0s0,0,0,0Z"/>
            <path class="cls-18" d="M69.48,99.03c0-1.3-1.05-2.35-2.35-2.35s-2.35,1.05-2.35,2.35h0s.05,14.23.05,14.23h0c0,.35.23.69.69.96.92.53,2.4.53,3.32,0,.46-.26.69-.61.69-.96h0l-.05-14.23h0Z"/>
            <path class="cls-18" d="M75.98,91.58c-1.3,0-2.35,1.05-2.35,2.35,0,0,0,0,0,0l.05,14.23c0,.35.23.69.69.96.92.53,2.4.53,3.32,0,.46-.26.69-.61.69-.96h0l-.05-14.23c0-1.3-1.05-2.35-2.35-2.35Z"/>
          </g>
        </g>
        <g class="cls-28">
          <g>
            <g>
              <path class="cls-20" d="M29.01,148.69c-1.12.65-2.56.26-3.21-.86-.65-1.12-.26-2.56.86-3.21l12.35-7.07c.3-.17.72-.15,1.17.12.92.53,1.66,1.82,1.66,2.87,0,.53-.19.9-.49,1.07h0l-12.35,7.07Z"/>
              <path class="cls-20" d="M29.01,158.9c-1.12.65-2.56.26-3.21-.86-.65-1.12-.26-2.56.86-3.21,0,0,0,0,0,0h0l12.35-7.07c.3-.17.72-.15,1.17.12.92.53,1.66,1.82,1.66,2.87,0,.53-.19.9-.49,1.07h0l-12.35,7.07h0s0,0,0,0Z"/>
              <path class="cls-20" d="M29.01,169.12c-1.12.65-2.56.26-3.21-.86-.65-1.12-.26-2.56.86-3.21,0,0,0,0,0,0l12.35-7.07h0c.3-.17.72-.15,1.17.12.92.53,1.66,1.82,1.66,2.87,0,.53-.19.9-.49,1.07h0l-12.35,7.07h0s0,0,0,0Z"/>
              <path class="cls-20" d="M25.81,178.48c-.65-1.12-.26-2.56.86-3.21,0,0,0,0,0,0l12.35-7.07c.3-.17.72-.15,1.17.12.92.53,1.66,1.82,1.66,2.87,0,.53-.19.9-.49,1.07h0l-12.35,7.07c-1.12.65-2.56.26-3.21-.86Z"/>
            </g>
            <g>
              <path class="cls-20" d="M51.78,109.24c0-1.3-1.05-2.35-2.35-2.35s-2.35,1.05-2.35,2.35l.05,14.23c0,.35.23.69.69.96.92.53,2.4.53,3.32,0,.46-.26.69-.61.69-.96h0l-.05-14.23Z"/>
              <path class="cls-20" d="M60.63,104.14c0-1.3-1.05-2.35-2.35-2.35s-2.35,1.05-2.35,2.35h0s.05,14.23.05,14.23c0,.35.23.69.69.96.92.53,2.4.53,3.32,0,.46-.26.69-.61.69-.96h0l-.05-14.23h0s0,0,0,0Z"/>
              <path class="cls-20" d="M69.48,99.03c0-1.3-1.05-2.35-2.35-2.35s-2.35,1.05-2.35,2.35h0s.05,14.23.05,14.23h0c0,.35.23.69.69.96.92.53,2.4.53,3.32,0,.46-.26.69-.61.69-.96h0l-.05-14.23h0Z"/>
              <path class="cls-20" d="M75.98,91.58c-1.3,0-2.35,1.05-2.35,2.35,0,0,0,0,0,0l.05,14.23c0,.35.23.69.69.96.92.53,2.4.53,3.32,0,.46-.26.69-.61.69-.96h0l-.05-14.23c0-1.3-1.05-2.35-2.35-2.35Z"/>
            </g>
          </g>
        </g>
      </g>
    </g>
  </g>
  <g id="Shadow-2" data-name="Shadow">
    <path id="Shadow-3" data-name="Shadow" class="cls-15" d="M459.4,405.46l-55.05,31.77c-43.68-30.68-105.35-74.04-108.42-76.19-5.67-3.97-7.45-8.17-7.22-11.46.23-3.21,1.22-7.01,8.07-10.41,1.75-.87,3.91-1.71,6.32-2.19,3.53-.69,6.7-.45,9.29-.08,4.94.73,9,1.97,14.64,4.38,3.38,1.44,83.69,40.97,132.37,64.18Z"/>
  </g>
  <g id="Character">
    <g id="Character-2" data-name="Character">
      <g id="Character-3" data-name="Character">
        <g>
          <path id="Arm" class="cls-21" d="M381.93,184.25s-8.17-21.41-8.17-21.41c-3.88-11.03-11.65-18.98.57-25.6,5.13.08,7.54,1.91,10.64,8.04,3.11,6.13,8.93,27.78,10.27,32.45,1.36,5.25,1.65,7.31,1.76,12.47.11,5.37-1.61,15.22-2.14,20.55-.25,2.47-.31,4.84-.39,7.34-.08,2.61-.84,5.09-1.27,7.66-.2,1.19-.84,2.36-1.63,3.27-.52.6-1.31.77-1.8,1.33-.51.58-.51,1.41-1.23,1.91-.8.56-1.84.44-2.53,1-.72.59-1.29,1.37-2.12,1.88-.74.46-1.31.69-1.81,1.44-.41.62-.71,1.91-1.62,1.95-1.02.05-1.32-.9-1.5-1.73-.31-1.46.21-3.45.92-4.75.82-1.5,1.28-3.18,2.27-4.59.9-1.27,1.27-3.01,1.51-4.56.16-1.08-.13-2.39-1.38-1.59-1.47.95-2.91,2.7-4.85,2.66-1.34-.03-1.57-1.05-.93-2.02,1.06-1.63,1.94-3.25,2.76-5.03.82-1.77,1.43-3.62,2.3-5.36.45-.91,1.02-1.79,1.59-2.64,1.59-2.37,1.1-5.2.92-7.88-.25-3.74-1.48-12.04-2.13-16.79Z"/>
          <g id="Arm-2" data-name="Arm">
            <path class="cls-20" d="M379.27,216.92c1.08-2.62,1.94-5.34,3.52-7.72,1.73-2.39,1.26-5.34,1.03-8.1-.22-2.8-.62-5.61-1-8.41l-1.16-8.4c-1.24-3.23-2.71-7.19-3.99-10.67-1.33-3.58-2.61-7.18-3.9-10.78,2.89,7.08,5.7,14.2,8.44,21.34.79,5.62,1.67,11.22,2.12,16.89.22,2.77.55,5.95-1.26,8.31-1.63,2.32-2.63,4.97-3.8,7.54h0Z"/>
          </g>
          <path class="cls-16" d="M368.91,136.53c8.49-.94,12.33.95,14.81,5.54,2.48,4.58,6.73,15.38,9.13,25.52-3.54,5.09-15.75,7.36-15.75,7.36l-5.47-14.57-2.72-23.84Z"/>
          <path class="cls-1" d="M397.02,190.19c.1,5.38-1.6,15.22-2.14,20.55-.25,2.47-.31,4.84-.4,7.33-.08,2.61-.84,5.09-1.27,7.66-.2,1.19-.84,2.36-1.63,3.27-.51.6-1.31.78-1.8,1.34-.51.57-.51,1.4-1.23,1.9-.8.56-1.84.44-2.53,1.01-.73.59-1.29,1.37-2.12,1.88-.74.47-1.32.68-1.82,1.44-.31.48-.56,1.34-1.07,1.72-.18-.42-.3-.87-.32-1.34-.13-2.45,1.89-4.39,3.26-6.43,3.46-5.17,2.93-11.91,3.4-18.12.41-5.48,1.71-10.93,1.33-16.43-.28-4.2-1.54-8.27-2.87-12.29-2.9-8.73-6.2-17.38-10.57-25.49-2.13-3.96-4.49-7.96-7.15-11.57-.12-.16-.23-.31-.34-.47-.05-1.78.43-3.46,1.68-5.07l-.51-4.56c8.49-.95,12.32.96,14.8,5.53,2.48,4.59,6.73,15.38,9.14,25.52-.11.14-.22.29-.34.43,1.26,4.38,2.28,8.08,2.74,9.71,1.36,5.26,1.65,7.3,1.76,12.47Z"/>
        </g>
        <g id="Bottom">
          <g>
            <g>
              <path class="cls-17" d="M283.42,338.05c-.6-.26-1.09,1.24-.94,2.08.43,2.42,2.75,5.63,6.9,8.06,4.14,2.43,13.25,4.07,15.93,4.82,2.68.75,6.81,3.57,9.3,4.85,4.55,2.32,8.27,2.06,10.33,1.02.81-.41,1.16-1.28,1.39-2.05.54-1.84.5-2.26.29-2.31l-43.2-16.47Z"/>
              <g>
                <path class="cls-16" d="M327.82,349.03c-.19,1.91-.86,4.98-1.7,6.72-.99,1.18-2.73,1.47-4.04,1.46-3.46-.03-6.47-1.21-9.69-3.07-1.93-1.11-4.03-2.31-6.56-2.98-2.78-.73-9-2.07-11.75-2.92-2.34-.72-5.17-2.16-6.99-3.84-1.54-1.43-3.68-4.17-3.84-5.77.47-3.47,1.43-5.32,3.68-5.82,2.38-.53,5.3.16,9.34,1.14,1.21.29,2.72.71,3.37.84,2.47.51,4.76,1.05,6.61,1.52,1.58.4,3.14.78,4.78.47.78-.15,1.4-.36,1.93-.95.65-.72,1.03-1.94,1.79-1.78,0,0,12.76,6.66,13.82,7.12,1.22.54-.19,2.07-.76,7.86Z"/>
                <path class="cls-20" d="M283.25,338.63c.1-8.52,7.37-6.52,13.03-4.68,0,0-4.16-.7-4.16-.7-5.3-.88-7.85-.35-8.87,5.38h0Z"/>
              </g>
              <path class="cls-22" d="M298.65,334.33c-.48.13-1.05.55-1.38.86-.44.42-.8.85-1.13,1.37-.4.63.4,1.04.99.36.4-.47.83-1.01,1.57-1.56.35-.27,1.04-.54,1.44-.46.31.06.71.15.71.15-.02-.57-1.58-.89-2.21-.72Z"/>
              <path class="cls-22" d="M304.97,335.59c-.47-.21-.9-.21-1.4-.02-.58.22-1.04.64-1.42,1.12-.31.39-1,1.41-1.2,1.86-.19.43.85.75,1.12.3.27-.44.78-1.25,1.13-1.69.22-.27,1.13-1.26,1.89-1.14l.33.09c.05-.15-.12-.33-.25-.41-.07-.04-.14-.08-.21-.11Z"/>
              <path class="cls-22" d="M308.58,336.64c-.39,0-.62-.02-.94.2-.3.21-.7.58-.9.89-.57.86-.74,1.28-1.02,2.08-.2.57.89.75,1.05.38.5-1.17.75-1.95,1.61-2.65.7-.57,1.2-.65,1.2-.65,0-.11-.15-.17-.25-.19-.16-.02-.57-.07-.74-.07Z"/>
            </g>
            <path class="cls-21" d="M333.63,327.01s-4.01,12.16-5.23,14.93c-.39.89-2.24.69-3.26.79-1.02.1-2.63.26-3.64.77-3,1.52-4.88,1.5-4.97-2.89-.02-.9-.43-1.42-1.52-1.56-.82-.11-1.72-.02-2.45-.43-.09-.12.04-.28.16-.37.92-.7,1.43-1.17,1.83-2.85,1.25-5.21,1.9-9.69,3.26-16.08l15.82,7.69Z"/>
          </g>
          <g>
            <path class="cls-21" d="M381.96,346.17c-1.73-2.76-2.66-8.08-6.46-18.88l-14.78,12.12,8.76,13.93c.46.79.48,1.97.64,2.21,1.88,2.7,11.84-9.37,11.84-9.37Z"/>
            <g>
              <path class="cls-16" d="M387.18,352.05c-.02-.16.06-1.46.02-1.62-.37-1.4-1.23-1.79-2.34-2.57-1.38-.97-2.71-2.13-3.07-2.62-.37-.52-.44-.78-1.02-1.02-.98-.4-2.57-.43-4.52.59-3.2,1.68-4.17,3.7-3.99,5.89.14,1.67.28,3.89-1.19,4.88-.61.41-1.58-2.26-1.58-2.26-.91,1.52.37,3.63,1.03,6.71.46,2.11.34,3.04.09,5.18-.32,2.71-.7,2.7-2.13,2.88-1.24.16-4.75-.07-6.88,1.42-2.94,2.06-2.16,4.79-2.16,4.79.38,1.04,3.58,6.09,15.28,4.2,3.39-.55,10.52-5.88,10.41-6.38-.1-.46.01-1.06.03-1.53.04-1.2.09-2.39.14-3.59.05-1.09-.06-2.36.2-3.42.23-.94.34-1.84.44-2.82.22-2.4.45-4.8.67-7.2.06-.69.68-.85.58-1.53Z"/>
              <path class="cls-20" d="M368.48,368.11c-3.87.45-9.32,1.09-9.04,6.21-.76-2.15.73-4.51,2.69-5.44,2-.97,4.22-.84,6.35-.77h0Z"/>
              <path class="cls-15" d="M388.65,351.58c1.15,1.12.45,4.35-1.09,8.24-.69,1.72-1.96,4.69-1.59,7.85s.44,4.65-.37,6.12c-1.27,2.31-8.07,5.27-12.08,6.2,0,0,3.67-4.61,4.07-11.57.4-6.96.93-11.45,4.12-14.54,4.03-3.9,6.94-2.3,6.94-2.3Z"/>
              <path class="cls-17" d="M359.44,374.32s2.35,4.39,11.39,4.25c3.56-.06,5.47-1.79,5.56-7.2.11-6.52.63-13.11,2.74-16.35,2.11-3.24,5.47-4.81,8.08-4.58.45.07,1.03.5,1.45,1.14,0,0-2.61-.86-6.67,2.51-3,2.49-3.81,7.68-3.76,14.13.02,2.78.19,5.92-.62,8.03-.75,1.94-2.41,3.27-4.32,3.81-4.92,1.38-11.65-.9-13.35-2.97-.98-1.39-.49-2.77-.49-2.77Z"/>
              <g>
                <path class="cls-22" d="M370.31,366.93s-.66.47-.73,1.08c-.07.61.14,2.03,1.43,2.83.54.34,1.02.22.15-.92-.87-1.14-.85-2.99-.85-2.99Z"/>
                <path class="cls-22" d="M370.79,363.55s-.29.19-.36,1.09c-.04.49.72,2.44,1.67,2.91.95.47.44-.63.02-1.17-.45-.59-1.25-1.93-1.33-2.83Z"/>
                <path class="cls-22" d="M370.47,359.82s-.31.09.02,1.33c.11.42,1.36,1.66,1.97,1.73.61.07.91-.23.16-.78-.59-.43-2.04-1.68-2.15-2.29Z"/>
              </g>
            </g>
          </g>
          <g>
            <path class="cls-15" d="M343.28,206.72s-6.12,7.33-9.82,21.05c-4.49,16.65-6.23,29.45-7.63,38.75-.88,5.84-1.53,10.01-3.12,20.64-1.32,8.86-7.14,41.8-7.14,41.8,0,0,1.47,2.63,7.38,5.33,3.25,1.48,7.31,1.49,8.54.99,0,0,3.89-9.49,9.47-23.14,3.84-9.39,5.88-14.61,6.77-19.16.67-3.42.91-8.05.49-12.38l25.75-44.14s2.73-2.84,5.11-8.82c3.6-9.04-.24-25.01-.24-25.01l-35.56,4.1Z"/>
            <path class="cls-20" d="M325.83,266.51c-2.55,20.59-6.39,42.04-10.26,62.44,3.09-20.54,6.92-41.96,10.26-62.44h0Z"/>
            <path class="cls-12" d="M336.6,218.59c-1.11,2.64-2.2,5.7-3.14,9.18-4.09,15.16-5.89,27.13-7.25,36.16.84,5.17,1.98,11.38,2.67,14.55,2.26,10.25,3.67,17.5,5.46,21.73,1.78,4.22,6.87,11.21,6.89,11.24,3.66-8.97,5.63-14.05,6.5-18.48.67-3.42.92-8.05.49-12.38l18.51-31.72,1.3-10.36c5.08-8.28,4.52-14.49,2.19-19.91h-33.62Z"/>
          </g>
          <path class="cls-1" d="M352.22,249.05c-.92-2.2-2.19-4.44-4.34-5.46s-6.73-1.74-6.95.63c-.76,8.25-3.25,16.22-5.2,24.26-5.15,21.19-6.66,43.15-11.9,64.32-.79,3.18-1.74,6.49-4.02,8.85-3.64,3.76-9.49,4.02-14.73,4.03-4.01,0-8.07.01-11.94-1.02-3.87-1.03-7.6-3.23-9.6-6.7-.06-.1-.12-.21-.18-.31-.01.13-.04.24-.05.38-.54-.02-.96,1.31-.82,2.09.43,2.42,2.75,5.63,6.9,8.06,4.14,2.43,13.25,4.07,15.93,4.82,2.68.75,6.81,3.57,9.3,4.85,4.55,2.32,8.27,2.06,10.33,1.02.81-.41,1.16-1.28,1.39-2.05.54-1.84.5-2.26.3-2.31h-.01c.6-1.74,1.06-3.97,1.21-5.49.55-5.58,1.87-7.2.87-7.79.52-1.32,1.3-3.52,2.09-5.8.28-.05.52-.11.7-.18,0,0,3.89-9.49,9.47-23.14.31-.76.61-1.49.9-2.2.04-.09.07-.18.11-.27.17-.43.35-.85.51-1.27.04-.11.09-.21.13-.32.16-.39.31-.78.46-1.16.04-.11.09-.22.13-.33.15-.37.29-.73.43-1.08.04-.11.08-.21.12-.31.13-.34.27-.68.39-1.01.05-.12.09-.23.13-.34.12-.31.24-.62.35-.92.04-.11.09-.23.13-.34.11-.29.22-.58.32-.86.04-.11.08-.22.12-.33.1-.27.2-.54.29-.81.04-.12.08-.23.12-.35.09-.25.18-.5.26-.74.04-.12.08-.23.12-.35.08-.23.16-.47.23-.69.04-.12.07-.23.11-.35.07-.22.14-.44.21-.65.04-.12.07-.23.11-.35.06-.2.13-.41.18-.61.04-.13.07-.26.11-.38.05-.18.1-.36.15-.54.04-.14.07-.28.11-.43.04-.15.08-.31.12-.46.04-.15.07-.31.11-.46.03-.14.07-.28.1-.41.04-.2.08-.39.12-.58.02-.09.04-.18.06-.26.25-1.28.44-2.74.56-4.28.08-1.03.13-2.1.14-3.18.02-1.63-.05-3.29-.21-4.92l7.5-12.85c-.28-6.43-1.03-12.76-3.5-18.68Z"/>
          <path class="cls-15" d="M364.51,206.72c1.6,1.64,5.58,7.12,6.22,15.57.27,3.58-.74,10.31-4.92,15.39-1.28,18.73-4.35,54.61-4.35,54.61,4.95,5.1,6.01,8.81,8.88,17.95,1.74,5.55,7.24,22.67,9.08,28.33-8.81,1.32-13.77,9.18-13.77,9.18,0,0-14.31-22.01-22.08-35.02-6.17-10.32-7.51-13.52-9.05-19.34-1.18-4.46-2.36-11.71-4.14-23.9-1.78-12.19-3.31-25.87-4.49-39.73-1.02-11.99-1.35-24.18-1.35-24.18l39.96,1.15Z"/>
          <path class="cls-20" d="M365.65,347.74c-6.94-10.53-13.81-21.1-20.4-31.86-3.24-5.42-6.68-10.74-9.1-16.6-2.33-5.93-3.3-12.22-4.34-18.43-2.95-18.69-5.12-37.5-6.46-56.38-.39-6.3-.65-12.6-.79-18.9.47,12.6,1.49,25.17,2.82,37.71,1.29,12.54,3.02,25.03,5.03,37.47,1.01,6.21,1.95,12.48,4.22,18.34,2.36,5.82,5.78,11.18,8.98,16.58,5.69,9.44,14.13,22.62,20.06,32.06h0Z"/>
          <path class="cls-12" d="M380.39,221.4c-1.21-.35-2.94-1.51-3.6-2.55-.39-.63-.63-1.52-.93-2.65-.33-1.23-.74-2.77-1.51-4.5l-.93.41c.74,1.66,1.12,3.09,1.46,4.35.32,1.21.58,2.17,1.05,2.93.78,1.24,2.78,2.65,4.37,3.03.04-.34.07-.67.09-1.01Z"/>
          <path class="cls-12" d="M356.33,232.13c.26,0,.48-.03.65-.07,1.47-.32,2.61-1.31,4.89-4.22,1.73-2.22,1.56-3.81,1.26-6.45-.11-.97-1.13-6.15-1.19-7.51l-.97.54c.07,1.4,1.05,6.1,1.16,7.08.29,2.62.42,3.82-1.05,5.71-2.11,2.69-3.11,3.59-4.31,3.86-1.16.26-6.3-.59-7.67-1.54-.79-.55-2.12-7.32-2.89-13.27l-1.01.13c.39,3.01,1.79,12.92,3.32,13.98,1.36.94,5.78,1.81,7.82,1.76Z"/>
        </g>
        <g id="Top">
          <path class="cls-18" d="M378.34,142.01c3.43,6.56,3.01,12.43,2.02,21.64-.91,8.49-1.92,18.79-1.92,24.26,0,12.03,1.57,19.88,1.57,19.88,0,0-1.62,4.74-16.57,8.55-26.28,6.69-38.89-.93-38.89-.93,0,0-.63-14.8.38-34.16,1.14-21.69,1.52-24.86,3.2-30.02,1.23-2.85,3.56-5.41,6.72-6.85,2.61-1.18,8.85-3.23,12.56-4.66,8.63-3.33,18.6-3.12,18.6-3.12,7.48-.5,10.54,2.01,12.32,5.41Z"/>
          <g>
            <path class="cls-21" d="M346.76,132.29l.71,7.98c4.37.95,14.97.27,16.97-2.44l-.42-7.31-17.25,1.78Z"/>
            <g>
              <path class="cls-19" d="M335.39,111.84s-2.03,1.53-3.56,6.83l3,2.2c.99-3.72,2.05-7.51.56-9.03Z"/>
              <path class="cls-15" d="M339.23,90.79c-1.56.69-3.08,1.54-4.26,2.78-1.17,1.24-1.97,2.91-1.87,4.61.08,1.26.35,2.6,1.23,3.55-1.1.46-1.48,1.95-1.02,3.05.46,1.1,1.55,1.82,2.68,2.19,2.2.74,4.62.39,6.83-.3,2.23-.7,4.35-1.73,6.37-2.92,2.08-1.23,4.08-2.64,5.61-4.51,1.52-1.87,2.54-4.24,2.4-6.65l13.45,9.14c-.1-14.18-25.47-13.56-31.42-10.92Z"/>
              <path class="cls-21" d="M343.14,97.02c-3.49.23-5.61,1.21-6.78,3.48-1.32,2.58-1.4,6.85-.81,13.61-2.62,12.07,1,16.84,2.55,18.42,3.51,1.88,7.08,2.19,11.93.93,3.7-.96,13.07-3.74,16.99-9.56,4.62-6.84,5.82-17.24.91-21.11-6.92-5.45-21.83-5.97-24.79-5.77Z"/>
              <path class="cls-20" d="M338.1,132.53c-4.29-5.06-3.43-12.34-2.27-18.41-.26-4.51-1.14-9.31.53-13.63-2.02,4.07-1.34,9.5-1.09,13.55-1.26,6.09-1.93,13.7,2.83,18.48Z"/>
              <path class="cls-19" d="M338.1,132.53c.86.87,5.85,2.45,8.92,2.12l-.25-2.36s-4.27.8-8.67.24Z"/>
            </g>
            <path class="cls-15" d="M343.46,105.47c0,.33.02.67.06,1,.21,1.87,1.28,3.18,3.1,3.68-.79,1.49-1.21,3.16-1.23,4.84,0,.53.04,1.08.33,1.53.53.78,1.41.7,1.82-.02.49-.87.83-1.77,1.52-2.52.79-.87,1.87-1.53,3.06-1.65,4.5-.44,4.51,6.56,2.71,8.93-2.95,3.88-5.37,1.39-5.37,1.39,0,0-1.52,5.98,2.82,8.57,0,0,7.04,2.42,11.81,0,2.18-4.49,5.07-7.82,7.41-12.59,4.1-8.36,1.95-15.39-.84-16.91-.22-4.93-2.57-6.96-7.62-9.34-3.96-1.87-10.21-2.5-14.47-1.54-5.37,1.21-11.03,4.61-12.31,9.59,2.34,1.55,4.9,1.96,6.55,2.14.27.03.52.23.63.47.06.14.06.3.06.45,0,.66-.04,1.32-.04,1.98Z"/>
            <path class="cls-20" d="M339.23,90.79c-4.32,1.74-7.99,6.39-4.71,10.76,0,0,.24.26.24.26l-.33.14c-1.95,1.08-.9,3.72.91,4.43.19.09.14.05.15.26l.17,5.19v.15c-1.89,1.74-2.82,4.34-3.58,6.75,0,0-.1-.28-.1-.28l2.81,2.09.1.08v.12c-.19,4.1.33,8.61,3.2,11.78-1.52-1.47-2.48-3.45-3.03-5.49-.55-2.05-.68-4.19-.64-6.31l.1.2-2.84-2.05-.15-.11c.55-1.94,1.27-3.87,2.37-5.58.37-.56.75-1.09,1.28-1.56l-.11.25-.14-5.25.15.26c-1.49-.66-2.75-2.46-2.03-4.14.21-.53.62-1.02,1.18-1.26l-.09.4c-1.55-1.93-1.62-4.78-.44-6.86,1.19-2.1,3.37-3.35,5.52-4.24h0Z"/>
          </g>
          <g>
            <path id="Arm-3" data-name="Arm" class="cls-21" d="M313.9,192.21s2.32-12.31,4.28-22.71c1.79-9.48,2.84-21.69,16.43-24.31,2.46,3.75,4.06,9.5,3.23,16.67-.83,7.17-6.08,28.92-7.6,33.78-1.85,5.39-3.57,7.24-7.59,12.15-3.57,4.37-10.38,11.76-13.94,16.12-1.65,2.02-3.07,4.06-4.59,6.2-1.58,2.23-3.68,3.97-5.55,5.97-.86.92-2.11,1.58-3.32,1.92-.8.22-1.59-.08-2.35.12-.78.22-1.26.94-2.18.96-1.03.03-1.87-.68-2.8-.59-.97.09-1.92.45-2.94.42-.92-.02-1.55-.15-2.43.21-.72.3-1.73,1.26-2.55.77-.92-.55-.64-1.55-.31-2.38.58-1.46,2.19-2.9,3.56-3.63,1.59-.84,2.96-2.04,4.65-2.7,1.53-.59,2.86-1.9,3.96-3.12.77-.85,1.27-2.17-.29-2.19-1.84-.02-4.11.68-5.79-.48-1.16-.8-.76-1.83.36-2.31,1.88-.81,3.58-1.72,5.33-2.8,1.74-1.08,3.35-2.34,5.12-3.36.92-.53,1.93-.98,2.92-1.39,2.77-1.15,3.97-3.92,5.37-6.37,1.95-3.41,6.85-12.42,9.03-16.96Z"/>
            <path class="cls-16" d="M335.23,144.21c-4.44,1.49-12.8,4.02-14.9,12.72-1.97,8.19-4.49,23.04-4.49,23.04,0,0,1.99,3.48,8.5,4.93,6.52,1.45,9.71-.36,9.71-.36,0,0,3.89-16.98,4.56-21.26s1.05-15.42-3.39-19.07Z"/>
            <path class="cls-20" d="M319.85,158.29c-1.63,7.17-2.95,14.4-4.23,21.64l-.02.09.05.07.24.35c-.04.19-2.24,11.7-2.24,11.7-1.25,2.54-2.79,5.46-4.21,8.1-1.43,2.7-2.89,5.39-4.37,8.07-1.5,2.53-2.67,5.66-5.5,6.94-.68.31-2.47,1.2-3.12,1.5-3.55,2.33-6.95,4.73-10.85,6.44-.33.23-.65.6-.68,1.07-.03.48.26.88.57,1.14,1.93,1.63,4.56.32,6.71.79.61.38-.06,1.34-.4,1.75-1.89,2.55-4.95,3.41-7.41,5.21-1.94,1.13-4.09,2.44-4.82,4.72-.27.71-.3,1.65.46,2.05-1.4-1.01-.08-2.98.76-3.98,1.01-1.19,2.38-1.87,3.7-2.65,1.3-.84,2.55-1.67,4.01-2.2,1.67-.95,3.29-2.26,4.18-3.97.62-1.74-1.66-1.39-2.66-1.3-1.49.14-3.13.25-4.27-.69-1.45-1.43,1.13-2.05,2.14-2.59,1.38-.67,2.73-1.42,4.03-2.24,1.94-1.2,3.73-2.7,5.82-3.63l2.06-.97c2.98-1.32,4.21-4.52,5.77-7.12,3-5.36,5.96-10.73,8.63-16.27l2.2-11.87.02-.1-.06-.09s-.17-.23-.23-.32c1.23-7.2,2.5-14.41,4.08-21.55,1.16-7.91,7.96-12.05,15.06-14.16-7.19,1.99-14.18,6.09-15.39,14.08Z"/>
          </g>
        </g>
        <path class="cls-1" d="M387.55,359.83c-.68,1.72-1.96,4.68-1.58,7.84.37,3.15.43,4.65-.37,6.12-1.28,2.31-8.07,5.28-12.08,6.2-.08.01-.16.05-.24.07-4.92,1.38-11.65-.9-13.35-2.97-.18-.25-.29-.49-.38-.72,1.92.5,3.77,1.27,5.75,1.46,5.26.51,10.27-3.38,12.19-8.3,1.92-4.92,1.17-10.55-.79-15.45-1.96-4.91-5.08-9.26-8.01-13.64-7.1-10.62-13.36-21.81-18.72-33.42-2.04-4.42-3.94-8.91-5.26-13.59-1.64-5.78-2.36-11.77-2.93-17.75-1.44-14.75-4.05-36.25-5.01-51.01-1.21-18.62-2.07-25.93-3.78-39.43-.02-.11-.04-.23-.05-.35,0,.17,0,.32.01.49-1.13,4.62-2.14,8.51-2.69,10.25-1.57,4.56-3.05,6.6-5.9,10.09-.52.63-1.08,1.31-1.69,2.06-3.58,4.37-10.39,11.76-13.95,16.12-1.64,2.01-3.08,4.06-4.59,6.2-1.58,2.23-3.69,3.96-5.56,5.96-.86.92-2.11,1.59-3.32,1.93-.8.23-1.59-.08-2.35.12-.79.22-1.26.95-2.19.97-1.03.02-1.87-.68-2.79-.6-.98.1-1.93.46-2.95.43-.92-.02-1.54-.16-2.43.2-.72.31-1.71,1.25-2.54.78,1.08-3.14,4.33-5.02,7.48-6.13,3.26-1.14,6.79-1.86,9.41-4.1,2.43-2.06,3.72-5.11,5.22-7.93,4.11-7.72,10.21-14.24,14.45-21.89,4.91-8.89,7.15-18.99,8.47-29.05.81-6.33,1.58-13.3,6.23-17.66,1.6-1.51,3.5-2.54,5.51-3.4,3.92-1.68,8.26-2.71,11.69-5.23,2.74-2.02,4.84-5.83,3.14-8.79-1.99-3.42-7.22-2.98-10.26-5.52-2.85-2.37-3.01-6.6-2.95-10.31.1-5.15.18-10.3.28-15.45.05-2.63.11-5.36,1.22-7.76,1.9-4.1,6.21-6.11,10.71-7.38,9.16.2,19.97,3.15,20.05,12.39,2.79,1.52,4.93,8.55.84,16.91-2.35,4.78-5.22,8.11-7.41,12.6,0,0-.01,0-.01.01l.31,5.39c1.03-.04,1.64-.02,1.64-.02,7.48-.5,10.55,2.01,12.32,5.41,3.44,6.56,3.01,12.44,2.02,21.64-.92,8.49-1.93,18.79-1.93,24.26,0,12.02,1.57,19.88,1.57,19.88,0,0-.04.11-.14.3.81,5.47,1.48,13.88-.78,19.54-2.38,5.98-5.11,8.81-5.11,8.81l-9.22,15.82c-1.43,18.43-3.28,40.02-3.28,40.02,4.95,5.1,6.01,8.81,8.87,17.95,1.75,5.54,7.24,22.67,9.09,28.33-.1.01-.17.04-.26.05.75,2.47,1.33,4.35,1.92,5.78.31.2.42.46.72.85.35.49,1.69,1.65,3.07,2.62,1.11.79,1.98,1.17,2.35,2.57.44.07,1.02.5,1.45,1.14,1.15,1.13.44,4.36-1.1,8.25Z"/>
      </g>
    </g>
  </g>
  <g id="Speech_Bubble" data-name="Speech Bubble">
    <g id="Speech_Bubble-2" data-name="Speech Bubble">
      <g id="Speech_Bubble-3" data-name="Speech Bubble">
        <g id="Speech_Bubble-4" data-name="Speech Bubble">
          <path class="cls-18" d="M206.17,26.83l-83.59,48.39c-.63.36-1.13,1.24-1.13,2.94v56.74c0,.76.51,1.61,1.14,1.96l4.5,2.56c.63.36,1.65.35,2.27-.01l83.59-48.39c.63-.36,1.13-1.24,1.13-1.96V31.34c0-.72-.51-1.6-1.14-1.95l-4.51-2.56c-.63-.35-1.65-.35-2.27.01Z"/>
          <path class="cls-9" d="M206.17,26.83l-83.59,48.39c-.63.36-1.13,1.24-1.13,2.94v56.74c0,.76.51,1.61,1.14,1.96l4.5,2.56c.63.36,1.65.35,2.27-.01l83.59-48.39c.63-.36,1.13-1.24,1.13-1.96V31.34c0-.72-.51-1.6-1.14-1.95l-4.51-2.56c-.63-.35-1.65-.35-2.27.01Z"/>
          <path class="cls-18" d="M129.36,139.42c-.6.35-1.7.36-2.27.01l-4.5-2.57c-.63-.35-1.14-1.18-1.14-1.96v-56.74c0-1.35.26-1.79.4-2.11l6.72,3.87c-.13.25-.34.57-.33,1.11v57.73c0,.68.47,1.04,1.13.65Z"/>
          <path class="cls-4" d="M129.36,139.42c-.6.35-1.7.36-2.27.01l-4.5-2.57c-.63-.35-1.14-1.18-1.14-1.96v-56.74c0-1.35.26-1.79.4-2.11l6.72,3.87c-.13.25-.34.57-.33,1.11v57.73c0,.68.47,1.04,1.13.65Z"/>
          <g>
            <path class="cls-18" d="M118.34,116.48c-.71-.42-6.13-3.48-6.31-3.58-.52-.32-.71-1.09-.22-1.62l9.64-11.05,6.78,3.89-10.08,10.76c-.47.5-.28,1.24.19,1.59Z"/>
            <path class="cls-9" d="M118.34,116.48c-.71-.42-6.13-3.48-6.31-3.58-.52-.32-.71-1.09-.22-1.62l9.64-11.05,6.78,3.89-10.08,10.76c-.47.5-.28,1.24.19,1.59Z"/>
            <path class="cls-18" d="M212.96,30.68l-83.59,48.39c-.63.36-1.13,1.24-1.13,1.96v23.1l-10.08,10.76c-.65.7-.17,1.66.65,1.74l9.43-.69h0s0,22.83,0,22.83c0,.72.51,1.01,1.13.65l83.59-48.39c.63-.36,1.13-1.24,1.13-1.96V31.34c0-.72-.51-1.01-1.13-.65Z"/>
            <g>
              <path class="cls-15" d="M129.22,114.87l-10.32.75,10.32-11.11v-23.49c0-.37.32-.92.64-1.11l83.24-48.18v57.32c0,.37-.31.92-.63,1.11l-83.24,48.18v-23.48Z"/>
              <path class="cls-18" d="M212.11,33.46v55.58c-.01.09-.11.25-.15.29l-81.76,47.33v-20.71s0-2.13,0-2.13l-2.12.15-6.83.5,8.42-8.98.53-.57v-23.84c.01-.09.11-.25.15-.29l81.76-47.33M213.46,30.53c-.15,0-.32.05-.51.15l-83.59,48.39c-.63.36-1.13,1.24-1.13,1.96v23.1l-10.08,10.76c-.65.7-.17,1.66.65,1.74l9.43-.69h0s0,22.83,0,22.83c0,.51.26.81.63.81.15,0,.32-.05.51-.15l83.59-48.39c.63-.36,1.13-1.24,1.13-1.96V31.34c0-.51-.26-.81-.63-.81h0Z"/>
            </g>
          </g>
        </g>
      </g>
      <g>
        <g>
          <path class="cls-13" d="M205.19,73.55c-.41,0-.81.11-1.2.34l-.11.06c-.59.34-1.01.86-1.23,1.48-.19-.05-.38-.08-.58-.08-.41,0-.82.11-1.21.34l-.2.11c-.46.26-.81.64-1.05,1.09-.05,0-.1-.01-.16-.01-.43,0-.86.12-1.26.35l-1.99,1.15c-.39.22-.72.53-.99.92-.4,0-.79.11-1.17.33l-1.56.9c-.15.09-.28.2-.4.31-.17.05-.35.12-.52.22l-3.24,1.87c-.46.27-.81.64-1.05,1.09-.05,0-.1-.01-.16-.01-.41,0-.81.11-1.19.33l-1.29.74c-.57.33-.98.84-1.22,1.47-.19-.05-.37-.09-.56-.09-.41,0-.81.11-1.2.34l-.17.1c-.5.29-1.16.88-1.41,2.06l-.1.53c-.42-.36-.95-.53-1.43-.53-.41,0-.82.11-1.21.34l-.15.09c-.44.25-.79.61-1.02,1.03-.03,0-.05,0-.08,0-.44,0-.87.12-1.28.35l-2.6,1.5c-.45.26-.8.63-1.04,1.06-.05,0-.11-.01-.16-.01-.44,0-.86.12-1.26.35l-1.98,1.15c-.44.25-.8.61-1.09,1.07-.03,0-.06,0-.08,0-.41,0-.81.11-1.2.34l-3.23,1.86c-.38.22-.68.52-.91.87-.1-.01-.2-.03-.3-.03-.44,0-.86.12-1.27.35l-1.99,1.15c-.5.29-.91.73-1.22,1.3-.01,0-.03,0-.04,0-.41,0-.81.11-1.19.33l-.12.07c-.59.34-1.01.86-1.23,1.48-.19-.05-.38-.08-.58-.08-.41,0-.82.11-1.21.34l-.2.12c-.6.35-1.01.89-1.23,1.53-.2-.06-.4-.09-.6-.09-.41,0-.81.11-1.19.33l-1.29.74c-.68.39-1.13,1.05-1.33,1.87-.29-.12-.59-.19-.91-.19-.44,0-.87.12-1.28.35l-2.6,1.5c-.2.12-.38.26-.54.42-.23.05-.46.14-.69.26l-3.24,1.87c-.89.51-1.4,1.43-1.4,2.51v.15c0,1.23.73,2.01,1.57,2.26v5.41c0,.45.09.84.27,1.2.37.72,1.1,1.17,1.91,1.17.41,0,.81-.11,1.19-.34l.11-.07c.54-.31.92-.78,1.15-1.34.15.03.29.06.44.06.41,0,.81-.11,1.19-.33l.12-.07c.52-.3.9-.73,1.14-1.25.11.02.22.02.33.02.44,0,.86-.12,1.28-.36l.36-.21c.27-.16.5-.36.7-.59.28-.05.55-.13.8-.27l.13-.08c.76-.44,1.26-1.21,1.41-2.18v-.07c.38.25.82.37,1.23.37s.81-.11,1.2-.34l.11-.06c.29-.17.53-.39.73-.64.3-.04.6-.13.89-.29l.11-.06c.62-.35,1.05-.9,1.26-1.55.2.06.42.1.64.1.41,0,.82-.11,1.21-.34l.12-.07c.46-.27.81-.64,1.05-1.09.05,0,.1.01.15.01.44,0,.87-.12,1.28-.35l1.98-1.14c.44-.26.81-.63,1.11-1.11.05,0,.11.02.16.02.41,0,.81-.11,1.2-.34l.1-.06c.89-.51,1.4-1.42,1.4-2.5v-2.22s.2-.11.2-.11c.2.68.6,1.08.87,1.28l.34.26c.41.31.89.47,1.41.47.44,0,.87-.12,1.27-.35l1.99-1.15c.44-.26.79-.65,1.09-1.11.06,0,.12.02.18.02.41,0,.81-.11,1.19-.33l.12-.07c.52-.3.9-.73,1.14-1.25.11.02.22.02.33.02.44,0,.86-.12,1.28-.36l.36-.21c.32-.18.57-.43.78-.7.33-.03.65-.12.97-.31l.1-.06c.66-.38,1.11-.99,1.3-1.72.23-.06.46-.15.69-.28,0,0,.41-.24.42-.24.21.07.44.11.67.11.41,0,.81-.11,1.2-.34l.1-.06c.29-.17.53-.39.73-.64.3-.04.59-.12.87-.29l.13-.07c.76-.44,1.26-1.21,1.41-2.18v-.07c.38.25.82.37,1.23.37s.81-.11,1.2-.34l.11-.06c.49-.28.85-.7,1.08-1.18.1.01.19.04.29.04.41,0,.81-.11,1.19-.33l.12-.07c.47-.27.82-.66,1.06-1.12.07,0,.15.02.22.02.41,0,.81-.11,1.2-.34l1.56-.9c.39-.23.7-.54.93-.91.43,0,.84-.12,1.24-.35l1.98-1.14c.44-.26.81-.63,1.11-1.11.05,0,.11.02.16.02.41,0,.81-.11,1.2-.34l.12-.07c.61-.35,1.04-.89,1.25-1.55.2.06.42.09.64.09.42,0,.82-.11,1.21-.34l.11-.06c.89-.51,1.4-1.42,1.4-2.5v-8.73c0-1.54-1.12-2.37-2.18-2.37Z"/>
          <path class="cls-13" d="M205.19,74.54c-.23,0-.47.07-.7.2l-.11.06c-.58.34-.91.92-.91,1.65v1.29s-.22-.56-.22-.56c-.2-.53-.65-.85-1.18-.85-.24,0-.48.07-.71.2l-.2.12c-.54.31-.84.84-.89,1.49-.24-.18-.52-.29-.81-.29-.26,0-.52.07-.77.22l-1.99,1.15c-.36.21-.66.53-.88.96l-.1.19c-.15-.07-.32-.11-.48-.11-.23,0-.47.07-.7.2l-1.56.9c-.17.1-.31.22-.43.36-.16.03-.33.08-.49.17l-3.24,1.87c-.56.32-.87.88-.89,1.56-.24-.23-.54-.35-.81-.35-.23,0-.47.07-.69.2l-1.29.75c-.35.2-.8.62-.93,1.47l-.18,1.28c-.06-.84-.63-1.23-1.18-1.23-.23,0-.47.07-.71.2l-.17.1c-.33.19-.76.59-.94,1.4l-.75,3.82-.55-2.03c-.19-.73-.77-.99-1.2-.99-.24,0-.48.07-.71.2l-.15.09c-.51.29-.8.78-.87,1.38-.22-.14-.46-.23-.72-.23s-.53.07-.78.22l-2.59,1.5c-.53.31-.83.83-.88,1.46-.24-.18-.52-.29-.82-.29-.26,0-.52.07-.77.22l-1.99,1.15c-.36.21-.66.53-.89.96l-.2.39c-.18-.1-.38-.16-.58-.16-.23,0-.47.07-.7.2l-3.23,1.86c-.48.28-.77.72-.86,1.27-.24-.19-.53-.3-.84-.3-.26,0-.52.07-.77.22l-1.99,1.15c-.36.21-.66.53-.88.96l-.32.62c-.18-.1-.37-.15-.56-.15-.23,0-.47.07-.7.2l-.12.07c-.58.34-.9.92-.9,1.65v1.3s-.22-.56-.22-.56c-.2-.53-.65-.86-1.18-.86-.24,0-.48.07-.71.2l-.2.12c-.58.34-.91.92-.91,1.65v2.24l-.2-1.21c-.15-.82-.75-1.12-1.21-1.12-.23,0-.47.07-.69.2l-1.29.75c-.35.2-.8.62-.93,1.47l-.2,1.48c-.12-.29-.29-.49-.46-.62l-.34-.25c-.24-.18-.52-.27-.81-.27-.26,0-.53.07-.78.22l-2.59,1.5c-.22.12-.38.29-.52.48,0,0,0,0,0,0-.23,0-.47.07-.7.2l-3.24,1.87c-.58.34-.91.92-.91,1.65v.15c0,.93.61,1.36,1.19,1.36.13,0,.25-.02.38-.06v6.37c0,.29.05.54.16.75.2.4.59.64,1.03.64.23,0,.47-.07.7-.2l.11-.07c.58-.34.9-.92.9-1.65v-1.04c.01.25.06.47.15.65.2.4.59.64,1.03.64.23,0,.47-.07.7-.2l.12-.07c.58-.34.9-.92.9-1.65v-.17l.25.19c.24.18.52.27.81.27.26,0,.52-.07.78-.22l.37-.21c.29-.17.52-.4.67-.67h.15c.23,0,.46-.07.68-.19l.13-.07c.35-.2.79-.62.92-1.46l.25-1.78s.01-.06,0-.07l.63-.36.1.55c.15.82.75,1.11,1.21,1.11.23,0,.46-.07.7-.2l.12-.07c.32-.18.54-.44.69-.75.07.01.14.02.22.02.23,0,.47-.07.7-.2l.11-.06c.59-.34.91-.92.91-1.64v-1.57s.32.78.32.78c.21.51.65.83,1.17.83.24,0,.48-.07.71-.2l.12-.07c.54-.31.84-.84.89-1.48.24.18.52.27.81.27.26,0,.53-.08.78-.22l1.98-1.14c.36-.21.66-.53.89-.96l.24-.46c.2.13.42.2.64.2.23,0,.47-.07.71-.21l.11-.06c.58-.34.91-.92.91-1.64v-2.79s2.06-1.19,2.06-1.19v.8c0,.74.33,1.14.6,1.34l.34.26c.24.18.52.27.81.27.26,0,.53-.08.78-.22l1.98-1.14c.36-.21.66-.53.88-.96l.24-.46c.19.13.4.2.64.2s.47-.07.7-.2l.12-.07c.58-.34.9-.92.9-1.65v-.17l.25.19c.24.18.52.27.81.27.26,0,.52-.07.78-.22l.37-.21c.35-.2.59-.49.74-.84.1.03.2.04.31.04.23,0,.47-.07.7-.2l.1-.06c.58-.34.9-.92.9-1.65v-.2c.12.04.25.06.37.06.24,0,.48-.07.72-.21l.4-.23c.13-.08.28-.18.41-.33.21.19.48.29.77.29.23,0,.47-.07.7-.2l.1-.06c.31-.18.54-.43.69-.73h.23c.23,0,.46-.07.69-.2l.12-.07c.35-.2.8-.62.93-1.46l.25-1.78s.01-.06,0-.07l.63-.36.1.55c.15.82.75,1.11,1.21,1.11.23,0,.46-.07.7-.2l.12-.07c.56-.32.87-.87.87-1.51,0-.15,0-.26-.02-.32v-.06c.2.39.58.62,1.01.62.23,0,.47-.07.7-.2l.12-.07c.58-.34.9-.92.9-1.64.23.27.56.41.87.41.23,0,.47-.07.7-.2l1.56-.9c.45-.26.74-.66.85-1.16.17.08.35.13.54.13.26,0,.53-.07.78-.22l1.98-1.14c.36-.21.66-.53.89-.96l.24-.46c.2.13.42.2.64.2.23,0,.47-.07.7-.2l.12-.07c.58-.34.9-.92.9-1.64v-1.57s.32.79.32.79c.21.52.65.83,1.17.83.24,0,.48-.07.72-.2l.11-.06c.59-.34.91-.92.91-1.64v-8.73c0-.95-.62-1.38-1.19-1.38ZM144.17,114.57l-.2.12v-1.45s.2-.12.2-.12v1.45ZM159.77,109.16l-.22.13c-.03-.26-.11-.48-.22-.65l.45-.26v.78ZM159.56,104.99v-.98s.22-.12.22-.12c.01.35.12.62.27.83l-.48.28ZM166.57,101.53c-.23,0-.47.07-.7.2l-1.22.7v-1.13s2.06-1.19,2.06-1.19v1.43s-.09-.01-.13-.01ZM169.83,103.35l-.21.12v-5.07s.21-.12.21-.12v5.07ZM174.9,96.83l-.2.12v-1.45s.2-.12.2-.12v1.45ZM188.43,86.74c.2.15.44.22.67.22.13,0,.25-.02.38-.06v6.12l-1.05-6.27ZM192.39,90.54v-5.28s.4-.23.4-.23v5.08c-.16.12-.29.27-.4.44ZM198.29,86.92l-.21.12v-5.07s.21-.12.21-.12v5.07Z"/>
        </g>
        <g>
          <path class="cls-13" d="M205.45,64.52c-.49,0-.98.14-1.48.43l-3.39,1.96v-15.45c0-2.29-1.54-2.9-2.45-2.9-.49,0-.97.14-1.48.43l-.27.15c-1.26.73-1.95,2-1.95,3.58v9.4l-1.16-6.92c-.32-1.72-1.55-2.33-2.51-2.33-.49,0-.98.14-1.46.42l-3.03,1.75c-.76.44-1.73,1.35-2,3.2l-.09.64c-.53-.84-1.39-1.12-1.99-1.12-.49,0-.97.14-1.48.43l-7.61,4.39c-.41.23-.75.53-1.03.87-.38.05-.75.16-1.14.38l-3.66,2.11c-1.1.63-1.77,1.68-1.92,3-.46-.3-.98-.47-1.53-.47s-1.1.16-1.64.47l-4.65,2.68c-.79.46-1.45,1.17-1.94,2.12l-.39.74c-.44-.29-.92-.4-1.3-.4-.49,0-.97.14-1.48.43l-3.66,2.11c-1.1.63-1.76,1.68-1.92,3-.46-.3-.98-.47-1.53-.47s-1.1.16-1.64.47l-6.14,3.55c-1.26.73-1.95,1.99-1.95,3.55v20.48c0,2.27,1.54,2.87,2.45,2.87.49,0,.98-.14,1.48-.43l6.14-3.55c.79-.46,1.45-1.17,1.94-2.12l.39-.75c.43.27.89.37,1.26.37.49,0,.98-.14,1.48-.43l3.66-2.11c1.08-.62,1.74-1.64,1.91-2.91.45.29.97.45,1.51.45s1.13-.16,1.69-.49l4.65-2.68c.79-.46,1.45-1.17,1.94-2.12l.39-.75c.43.27.89.37,1.26.37.49,0,.98-.14,1.48-.43l3.66-2.11c1.26-.73,1.95-1.99,1.95-3.55v-.35c0-.95-.27-1.71-.81-2.23-.26-.26-.57-.44-.9-.56v-13.47c0-.08,0-.14.02-.19.25-.16.53-.39.8-.71.28-.04.57-.12.86-.26v15.47c0,.64.11,1.16.34,1.6.41.8,1.22,1.3,2.12,1.3.49,0,.98-.14,1.48-.43l.26-.15c1.26-.73,1.95-2,1.95-3.58v-17.56c0-.1,0-.16,0-.18l1.7-.98c.3-.17.56-.38.8-.61l-2.27,16.49c-.03.18-.05.42-.05.7,0,1.32.68,1.99,1.08,2.27.39.27.85.41,1.33.41s.96-.14,1.45-.42l.29-.17c.76-.44,1.72-1.34,2.01-3.19l.6-4.18c.04-.24.09-.34.09-.35l2.01-1.18.31,1.8c.32,1.72,1.55,2.33,2.51,2.33.49,0,.98-.14,1.45-.42l.3-.17c1.17-.68,1.85-1.83,1.87-3.17.5.4,1.1.61,1.74.61.55,0,1.1-.16,1.64-.47l6.12-3.53c1.26-.73,1.95-1.99,1.95-3.55v-.35c0-2.27-1.54-2.87-2.45-2.87ZM142.94,100.04c0,.07,0,.12,0,.14l-1.2.69v-12.5c0-.07,0-.12,0-.14l1.2-.69v12.5ZM161.46,89.35c0,.08,0,.13,0,.15l-1.22.7v-2.81c.35.2.75.31,1.16.31.02,0,.04,0,.06,0v1.65ZM160.91,80.92c-.25.14-.47.3-.67.48v-3.7c0-.07,0-.12,0-.14l1.22-.7v1.01c0,1.11.37,1.82.85,2.26l-1.4.81ZM166.59,79.39c.16-.17.29-.36.42-.56v.98c-.13-.16-.27-.31-.42-.42Z"/>
          <path class="cls-13" d="M183.64,61.01v-.35c0-1.82-1.22-1.92-1.46-1.92-.31,0-.63.1-.98.3l-7.61,4.39c-.34.2-.72.51-1,.97-.08-.01-.14-.02-.18-.02-.31,0-.63.1-.98.3l-3.66,2.11c-.67.38-1.46,1.17-1.46,2.73v.35c0,.7.18,1.21.55,1.54.25.22.56.34.89.34.08,0,.16,0,.24-.02v14.41c0,.26-.04.48-.12.66-.07.16-.16.22-.22.26-.45.26-.8.64-1.03,1.14,0,.02,0,.03-.02.05v-6.48c0-1.79-1.21-1.88-1.46-1.88-.31,0-.64.1-.99.3l-2.75,1.59c-.67.38-1.46,1.16-1.46,2.7v.35c0,.47.08.84.23,1.13.25.47.71.75,1.23.75.31,0,.64-.1.99-.3l.06-.03v2.97c0,.63-.24.85-.47.98l-2.73,1.58v-14.21c0-.63.24-.85.47-.98l2.73-1.58v2.72c0,1.79,1.21,1.88,1.46,1.88.31,0,.64-.1.99-.3l.24-.14c.67-.38,1.46-1.16,1.46-2.7v-4.08c0-.94-.29-1.64-.87-2.08l-.74-.56c-.33-.28-.74-.42-1.16-.42-.37,0-.76.11-1.14.34l-4.65,2.68c-.63.36-1.15.94-1.56,1.72l-.79,1.52c-.14.27-.25.55-.34.82-.18-1.39-1.2-1.48-1.43-1.48-.31,0-.63.1-.98.3l-3.66,2.11c-.66.38-1.46,1.17-1.46,2.73v.35c0,.71.18,1.21.55,1.54.25.22.56.34.9.34.08,0,.16,0,.24-.02v14.41c0,.26-.04.48-.12.66-.08.16-.17.23-.22.26-.45.26-.8.64-1.03,1.14,0,.02,0,.04-.02.05v-15.73c0-.94-.29-1.64-.87-2.09l-.74-.56c-.34-.28-.74-.42-1.16-.42-.37,0-.76.11-1.14.34l-6.14,3.55c-.67.38-1.46,1.16-1.46,2.7v20.48c0,1.79,1.21,1.88,1.46,1.88.31,0,.64-.1.99-.3l6.14-3.55c.63-.36,1.15-.94,1.56-1.72l.78-1.48c.14-.28.25-.56.34-.84.2,1.33,1.2,1.41,1.42,1.41.31,0,.64-.1.99-.3l3.66-2.11c.66-.38,1.46-1.16,1.46-2.7v-.35c0-.69-.17-1.19-.51-1.52-.25-.25-.59-.39-.94-.39-.08,0-.17,0-.26.02v-14.37c0-.26.04-.48.14-.67.09-.18.18-.25.24-.29.37-.21.78-.57,1.04-1.15v15.79c0,.95.29,1.65.87,2.08l.77.58c.32.24.7.37,1.1.37s.79-.12,1.2-.36l4.65-2.68c.63-.36,1.15-.94,1.56-1.72l.78-1.48c.14-.28.25-.56.34-.84.2,1.32,1.2,1.41,1.42,1.41.31,0,.64-.1.99-.3l3.66-2.11c.67-.38,1.46-1.16,1.46-2.7v-.35c0-.69-.17-1.19-.51-1.53-.25-.25-.59-.39-.94-.39-.08,0-.17,0-.26.02v-14.37c0-.26.04-.48.14-.68.09-.18.18-.25.24-.29.31-.18.65-.46.91-.89.06,0,.11,0,.14,0,.32,0,.64-.1,1-.3l1.24-.74v17.19c0,.47.07.85.23,1.15.25.48.71.77,1.24.77.31,0,.64-.1.98-.3l.26-.15c.66-.38,1.46-1.17,1.46-2.73v-17.56c0-.66.24-.88.47-1.02l1.73-1c.66-.38,1.46-1.16,1.46-2.66ZM143.93,100.04c0,.63-.24.85-.47.98l-2.71,1.56v-14.21c0-.63.24-.85.47-.98l2.71-1.56v14.21ZM192.3,55.38c-.26-1.41-1.24-1.52-1.54-1.52-.31,0-.64.1-.96.29l-3.03,1.75c-.83.48-1.34,1.31-1.52,2.48l-3.05,22.22c-.02.14-.04.32-.04.53,0,.83.36,1.25.66,1.45.22.15.49.24.77.24.31,0,.62-.09.95-.29l.29-.17c.83-.48,1.34-1.31,1.52-2.47l.6-4.19c.12-.8.45-.99.55-1.05l3.26-1.91.55,3.2c.26,1.41,1.24,1.52,1.54,1.52.31,0,.63-.09.96-.29l.29-.17c.89-.52,1.38-1.37,1.38-2.4,0-.25-.01-.43-.04-.54l-3.13-18.69ZM189.46,68.34l-1.64.94,1.05-7.57.98,5.76s0,.11,0,.19c0,.33-.11.52-.4.68ZM205.45,65.51c-.31,0-.64.1-.99.3l-4.88,2.82v-17.17c0-1.82-1.22-1.91-1.46-1.91-.31,0-.63.1-.98.3l-.26.15c-.67.39-1.46,1.17-1.46,2.73v18.53c0,.95.29,1.65.87,2.08l.74.56c.34.28.74.42,1.16.42.37,0,.76-.11,1.14-.34l6.12-3.53c.67-.38,1.46-1.16,1.46-2.7v-.35c0-1.79-1.21-1.88-1.46-1.88Z"/>
        </g>
        <g>
          <path class="cls-18" d="M145.86,81.32c-.32-.26-.71-.26-1.18,0l-6.14,3.55c-.64.37-.96.98-.96,1.84v20.48c0,.86.32,1.1.96.73l6.14-3.55c.47-.27.86-.71,1.18-1.32l.77-1.47c.32-.63.48-1.26.48-1.88v-16.5c0-.62-.16-1.05-.48-1.3l-.77-.58ZM144.92,100.04c0,.86-.32,1.47-.96,1.84l-3.23,1.86c-.64.37-.96.13-.96-.73v-14.64c0-.86.32-1.47.96-1.84l3.23-1.86c.64-.37.96-.13.96.73v14.64ZM153.42,76.22l-3.66,2.11c-.64.37-.96,1-.96,1.87v.35c0,.41.07.68.22.81.14.13.35.12.63-.04.27-.16.48-.16.63,0,.14.15.22.43.22.84v14.67c0,.41-.07.77-.22,1.07-.14.31-.35.54-.63.7-.27.16-.48.39-.63.7-.14.31-.22.66-.22,1.07v.35c0,.86.32,1.1.96.73l3.66-2.11c.64-.37.96-.98.96-1.84v-.35c0-.41-.07-.68-.22-.82-.14-.14-.35-.13-.63.02-.27.16-.49.17-.64.03-.15-.14-.23-.41-.23-.82v-14.67c0-.41.08-.77.23-1.1.15-.32.37-.56.64-.72.56-.32.84-.9.84-1.74v-.35c0-.88-.32-1.13-.96-.76ZM164.36,70.65c-.32-.26-.71-.26-1.18,0l-4.65,2.68c-.47.27-.86.71-1.18,1.32l-.79,1.52c-.32.62-.48,1.23-.48,1.85v16.54c0,.62.16,1.05.48,1.29l.77.58c.32.24.72.23,1.2-.05l4.65-2.68c.47-.27.86-.71,1.18-1.32l.77-1.47c.32-.63.48-1.26.48-1.88v-7.26c0-.86-.32-1.1-.96-.73l-2.75,1.59c-.64.37-.96.98-.96,1.84v.35c0,.86.32,1.1.96.73l.58-.33c.64-.37.96-.13.96.73v3.4c0,.86-.32,1.47-.96,1.84l-3.25,1.88c-.64.37-.96.13-.96-.73v-14.64c0-.86.32-1.47.96-1.84l3.25-1.88c.64-.37.96-.13.96.73v3.15c0,.86.32,1.1.96.73l.24-.14c.64-.37.96-.98.96-1.84v-4.08c0-.62-.16-1.05-.48-1.3l-.77-.58ZM171.92,65.54l-3.66,2.11c-.64.37-.96,1-.96,1.87v.35c0,.41.07.68.22.81.14.13.35.12.63-.04.27-.16.48-.16.63,0,.15.15.22.43.22.84v14.67c0,.41-.07.77-.22,1.07-.14.31-.35.54-.63.7-.27.16-.48.39-.63.7-.14.31-.22.67-.22,1.07v.35c0,.86.32,1.1.96.73l3.66-2.11c.64-.37.96-.98.96-1.84v-.35c0-.41-.07-.68-.22-.82-.14-.14-.35-.13-.63.02-.27.16-.49.17-.64.03-.15-.14-.23-.41-.23-.82v-14.67c0-.41.08-.77.23-1.1.15-.32.37-.56.64-.72.56-.32.84-.9.84-1.74v-.35c0-.88-.32-1.13-.96-.76ZM181.69,59.9l-7.61,4.39c-.64.37-.96,1-.96,1.87v.35c0,.84.32,1.07.96.7l1.76-1.01c.64-.37.96-.12.96.76v17.56c0,.88.32,1.13.96.76l.27-.15c.64-.37.96-.99.96-1.87v-17.56c0-.88.32-1.5.96-1.87l1.73-1c.64-.37.96-.97.96-1.81v-.35c0-.88-.32-1.13-.96-.76ZM191.32,55.56c-.13-.7-.47-.88-1.04-.56l-3.03,1.75c-.56.32-.91.91-1.03,1.75l-3.06,22.25c-.02.1-.02.22-.02.37,0,.32.08.53.23.64.15.1.37.07.66-.09l.29-.17c.56-.32.91-.91,1.04-1.75l.6-4.2c.13-.84.47-1.43,1.04-1.75l3.64-2.1c.56-.32.91-.14,1.03.56l.6,3.5c.13.7.47.88,1.04.56l.29-.17c.59-.34.89-.86.89-1.54,0-.17,0-.3-.02-.37l-3.13-18.68ZM189.95,69.19l-2.31,1.33c-.29.17-.51.2-.66.09-.15-.1-.23-.32-.23-.64,0-.15,0-.27.02-.37l1.28-9.25c.13-.84.37-1.37.72-1.57s.59.04.72.74l1.32,7.74c.02.08.02.2.02.37,0,.69-.3,1.2-.89,1.54ZM204.96,66.66l-5.39,3.11c-.64.37-.96.13-.96-.73v-17.59c0-.88-.32-1.13-.96-.76l-.26.15c-.64.37-.96,1-.96,1.87v18.53c0,.62.16,1.05.48,1.29l.77.58c.32.27.71.26,1.18,0l6.12-3.53c.64-.37.96-.98.96-1.84v-.35c0-.86-.32-1.1-.96-.73Z"/>
          <path class="cls-18" d="M141.23,112.41l-3.24,1.87c-.27.16-.41.42-.41.8v.15c0,.36.14.45.41.3l.75-.43c.27-.16.41-.05.41.32v7.48c0,.37.14.48.41.32l.11-.07c.27-.16.41-.42.41-.8v-7.48c0-.37.14-.64.41-.8l.74-.43c.27-.16.41-.41.41-.77v-.15c0-.37-.14-.48-.41-.32ZM145.55,110.21c-.14-.1-.3-.1-.5.02l-2.59,1.5c-.27.16-.41.42-.41.78v8.71c0,.37.14.48.41.32l.11-.07c.27-.16.41-.42.41-.8v-2.5c0-.36.14-.63.41-.78l.47-.27c.27-.16.41-.05.41.31v1.67c0,.26.07.45.2.55l.34.26c.14.1.3.1.5-.02l.37-.21c.27-.16.41-.42.41-.78v-.15c0-.36-.14-.47-.41-.31l-.07.04c-.27.16-.41.05-.41-.31v-1.27c0-.36.02-.56.07-.59.05-.03.14-.17.28-.43l.33-.63c.08-.14.13-.28.16-.4.03-.12.05-.25.05-.39v-3.43c0-.26-.07-.45-.2-.55l-.34-.26ZM145.16,114.59c0,.36-.14.63-.41.78l-1.36.79c-.27.16-.41.05-.41-.31v-2.64c0-.36.14-.63.41-.78l1.36-.79c.27-.16.41-.05.41.31v2.64ZM150.3,107.69c-.05-.3-.2-.38-.44-.24l-1.29.75c-.24.14-.39.39-.44.75l-1.3,9.47s0,.09,0,.16c0,.14.03.23.1.27.07.04.16.03.28-.04l.12-.07c.24-.14.39-.39.44-.75l.26-1.79c.05-.36.2-.61.44-.75l1.55-.89c.24-.14.39-.06.44.24l.26,1.49c.05.3.2.38.44.24l.12-.07c.25-.15.38-.36.38-.66,0-.07,0-.13,0-.16l-1.33-7.95ZM149.71,113.5l-.98.57c-.12.07-.22.08-.28.04-.07-.04-.1-.14-.1-.27,0-.06,0-.12.01-.16l.54-3.94c.05-.36.16-.58.31-.67.15-.09.25.02.31.31l.56,3.3s0,.09,0,.16c0,.29-.13.51-.38.66ZM156.2,103.76l-.11.06c-.27.16-.41.42-.41.8v4.81c0,.15-.02.27-.06.36-.04.1-.09.16-.15.2-.05.03-.1.03-.15,0-.05-.03-.09-.08-.13-.16l-1.65-4.12c-.09-.23-.25-.28-.47-.15l-.21.12c-.27.16-.41.42-.41.8v8.73c0,.36.14.47.41.31l.11-.06c.27-.16.41-.42.41-.78v-5.04c0-.15.02-.27.06-.38.04-.11.09-.18.15-.22.11-.06.2,0,.27.18l1.74,4.31c.09.22.25.27.47.14l.11-.07c.27-.16.41-.42.41-.78v-8.73c0-.37-.14-.48-.41-.32ZM161.16,100.98c-.14-.11-.3-.11-.5,0l-1.99,1.15c-.2.11-.37.3-.5.56l-.33.63c-.14.27-.2.54-.2.8v2.97c0,.26.07.45.2.55l.33.25c.14.1.31.1.51-.02l1.67-.96c.27-.16.41-.05.41.31v1.97c0,.36-.14.63-.41.78l-1.37.79c-.27.16-.41.05-.41-.31v-.94c0-.36-.14-.47-.41-.31l-.11.06c-.27.16-.41.42-.41.78v1.34c0,.26.07.45.2.55l.34.26c.14.1.3.1.5-.02l1.98-1.14c.2-.11.36-.3.5-.56l.33-.63c.14-.27.2-.54.2-.8v-2.76c0-.26-.07-.45-.2-.55l-.33-.25c-.14-.1-.3-.1-.5.02l-1.68.97c-.27.16-.41.05-.41-.31v-2.17c0-.36.14-.63.41-.78l1.37-.79c.27-.16.41-.05.41.31v1.08c0,.36.14.47.41.31l.11-.07c.27-.16.41-.42.41-.78v-1.48c0-.26-.07-.45-.2-.55l-.33-.25ZM166.36,97.93l-3.23,1.86c-.27.16-.41.42-.41.78v8.72c0,.36.14.47.41.31l.11-.06c.27-.16.41-.42.41-.78v-2.82c0-.36.14-.63.41-.78l2.3-1.33c.27-.16.41-.42.41-.78v-.15c0-.36-.14-.47-.41-.31l-2.3,1.33c-.27.16-.41.05-.41-.31v-2.32c0-.36.14-.63.41-.78l2.3-1.33c.27-.16.41-.42.41-.78v-.15c0-.36-.14-.47-.41-.31ZM171.22,95.38c-.14-.11-.3-.11-.5,0l-1.99,1.15c-.2.11-.37.3-.5.56l-.33.63c-.14.27-.2.54-.2.8v7.05c0,.26.07.45.2.55l.34.26c.14.1.3.1.5-.02l1.98-1.14c.2-.11.36-.3.5-.56l.33-.63c.14-.27.2-.54.2-.8v-7.05c0-.26-.07-.45-.2-.55l-.33-.25ZM170.82,103.37c0,.36-.14.63-.41.78l-1.37.79c-.27.16-.41.05-.41-.31v-6.26c0-.36.14-.63.41-.78l1.37-.79c.27-.16.41-.05.41.31v6.26ZM176.28,92.47c-.14-.1-.3-.1-.5.02l-2.59,1.5c-.27.16-.41.42-.41.78v8.71c0,.37.14.48.41.32l.11-.06c.27-.16.41-.42.41-.8v-2.5c0-.36.14-.63.41-.78l.47-.27c.27-.16.41-.05.41.31v1.67c0,.26.07.45.2.55l.34.26c.14.1.3.1.5-.02l.37-.21c.27-.16.41-.42.41-.78v-.15c0-.36-.14-.47-.41-.31l-.07.04c-.27.16-.41.05-.41-.31v-1.27c0-.36.02-.56.07-.59.05-.03.14-.17.28-.43l.33-.63c.08-.14.13-.28.16-.4.03-.12.05-.25.05-.39v-3.43c0-.26-.07-.45-.2-.55l-.34-.26ZM175.89,96.85c0,.36-.14.63-.41.78l-1.36.79c-.27.16-.41.05-.41-.31v-2.64c0-.36.14-.63.41-.78l1.36-.79c.27-.16.41-.05.41.31v2.64ZM182.64,88.53l-.17.1c-.23.13-.39.38-.46.73l-1.31,6.67c-.03.14-.07.27-.11.37-.05.1-.1.17-.15.2-.05.03-.1.02-.14-.02-.05-.04-.08-.12-.11-.23l-1.39-5.14c-.07-.26-.22-.32-.46-.18l-.15.09c-.27.16-.41.42-.41.78v8.71c0,.37.14.48.41.32l.1-.06c.27-.16.41-.42.41-.8v-3.39c0-.13.02-.24.06-.33.04-.09.09-.16.15-.19.05-.03.09-.03.14,0,.04.02.08.08.11.16l.65,2.36c.07.27.23.33.47.19l.4-.23c.23-.13.39-.38.46-.74l.56-2.89c.05-.22.13-.36.24-.43.06-.04.11-.03.15,0,.04.04.06.13.06.25v3.24c0,.37.14.48.41.32l.1-.06c.27-.16.41-.42.41-.8v-8.71c0-.36-.14-.47-.41-.31ZM187.35,86.3c-.05-.3-.2-.38-.44-.24l-1.29.75c-.24.14-.39.39-.44.75l-1.3,9.47s0,.09,0,.16c0,.14.03.23.1.27.07.04.16.03.28-.04l.12-.07c.24-.14.39-.39.44-.75l.26-1.79c.05-.36.2-.61.44-.75l1.55-.89c.24-.14.39-.06.44.24l.26,1.49c.05.3.2.38.44.24l.12-.07c.25-.15.38-.36.38-.66,0-.07,0-.13,0-.16l-1.33-7.95ZM186.77,92.1l-.98.57c-.12.07-.22.08-.28.04-.07-.04-.1-.14-.1-.27,0-.06,0-.12.01-.16l.54-3.94c.05-.36.16-.58.31-.67.15-.09.25.02.31.31l.56,3.3s0,.09,0,.16c0,.29-.13.51-.38.66ZM192.55,82.78l-3.24,1.87c-.27.16-.41.42-.41.8v.15c0,.36.14.45.41.3l.75-.43c.27-.16.41-.05.41.32v7.48c0,.37.14.48.41.32l.11-.07c.27-.16.41-.42.41-.8v-7.48c0-.37.14-.64.41-.8l.74-.43c.27-.16.41-.41.41-.77v-.15c0-.37-.14-.48-.41-.32ZM195.03,81.35l-1.56.9c-.27.16-.41.42-.41.8v.15c0,.17.03.29.09.34.06.06.15.05.27-.02.12-.07.2-.07.27,0,.06.07.09.18.09.36v6.25c0,.17-.03.33-.09.46-.06.13-.15.23-.27.3-.12.07-.21.17-.27.3-.06.13-.09.28-.09.46v.15c0,.36.14.47.41.31l1.56-.9c.27-.16.41-.42.41-.78v-.15c0-.17-.03-.29-.09-.35-.06-.06-.15-.06-.27.01-.12.07-.21.07-.27.01-.07-.06-.1-.17-.1-.35v-6.25c0-.17.03-.33.1-.47.07-.14.15-.24.27-.31.24-.14.36-.38.36-.74v-.15c0-.37-.14-.48-.41-.32ZM199.68,78.95c-.14-.11-.3-.11-.5,0l-1.99,1.15c-.2.11-.37.3-.5.56l-.33.63c-.14.27-.2.54-.2.8v7.05c0,.26.07.45.2.55l.34.26c.14.1.3.1.5-.02l1.98-1.14c.2-.11.36-.3.5-.56l.33-.63c.14-.27.21-.54.21-.8v-7.05c0-.26-.07-.45-.21-.55l-.33-.25ZM199.28,86.94c0,.36-.14.63-.41.78l-1.37.79c-.27.16-.41.05-.41-.31v-6.26c0-.36.14-.63.41-.78l1.37-.79c.27-.16.41-.05.41.31v6.26ZM204.98,75.6l-.11.06c-.27.16-.41.42-.41.8v4.81c0,.15-.02.27-.06.36-.04.1-.09.16-.15.2-.05.03-.1.03-.15,0-.05-.03-.09-.08-.13-.16l-1.65-4.12c-.09-.23-.25-.28-.47-.15l-.21.12c-.27.16-.41.42-.41.8v8.73c0,.36.14.47.41.31l.11-.06c.27-.16.41-.42.41-.78v-5.04c0-.15.02-.27.06-.38.04-.11.09-.18.15-.21.11-.06.2,0,.27.18l1.74,4.31c.09.22.25.27.47.14l.11-.07c.27-.16.41-.42.41-.78v-8.73c0-.37-.14-.48-.41-.32Z"/>
        </g>
        <g class="cls-27">
          <path class="cls-20" d="M145.86,81.32c-.32-.26-.71-.26-1.18,0l-6.14,3.55c-.64.37-.96.98-.96,1.84v20.48c0,.86.32,1.1.96.73l6.14-3.55c.47-.27.86-.71,1.18-1.32l.77-1.47c.32-.63.48-1.26.48-1.88v-16.5c0-.62-.16-1.05-.48-1.3l-.77-.58ZM144.92,100.04c0,.86-.32,1.47-.96,1.84l-3.23,1.86c-.64.37-.96.13-.96-.73v-14.64c0-.86.32-1.47.96-1.84l3.23-1.86c.64-.37.96-.13.96.73v14.64ZM153.42,76.22l-3.66,2.11c-.64.37-.96,1-.96,1.87v.35c0,.41.07.68.22.81.14.13.35.12.63-.04.27-.16.48-.16.63,0,.14.15.22.43.22.84v14.67c0,.41-.07.77-.22,1.07-.14.31-.35.54-.63.7-.27.16-.48.39-.63.7-.14.31-.22.66-.22,1.07v.35c0,.86.32,1.1.96.73l3.66-2.11c.64-.37.96-.98.96-1.84v-.35c0-.41-.07-.68-.22-.82-.14-.14-.35-.13-.63.02-.27.16-.49.17-.64.03-.15-.14-.23-.41-.23-.82v-14.67c0-.41.08-.77.23-1.1.15-.32.37-.56.64-.72.56-.32.84-.9.84-1.74v-.35c0-.88-.32-1.13-.96-.76ZM164.36,70.65c-.32-.26-.71-.26-1.18,0l-4.65,2.68c-.47.27-.86.71-1.18,1.32l-.79,1.52c-.32.62-.48,1.23-.48,1.85v16.54c0,.62.16,1.05.48,1.29l.77.58c.32.24.72.23,1.2-.05l4.65-2.68c.47-.27.86-.71,1.18-1.32l.77-1.47c.32-.63.48-1.26.48-1.88v-7.26c0-.86-.32-1.1-.96-.73l-2.75,1.59c-.64.37-.96.98-.96,1.84v.35c0,.86.32,1.1.96.73l.58-.33c.64-.37.96-.13.96.73v3.4c0,.86-.32,1.47-.96,1.84l-3.25,1.88c-.64.37-.96.13-.96-.73v-14.64c0-.86.32-1.47.96-1.84l3.25-1.88c.64-.37.96-.13.96.73v3.15c0,.86.32,1.1.96.73l.24-.14c.64-.37.96-.98.96-1.84v-4.08c0-.62-.16-1.05-.48-1.3l-.77-.58ZM171.92,65.54l-3.66,2.11c-.64.37-.96,1-.96,1.87v.35c0,.41.07.68.22.81.14.13.35.12.63-.04.27-.16.48-.16.63,0,.15.15.22.43.22.84v14.67c0,.41-.07.77-.22,1.07-.14.31-.35.54-.63.7-.27.16-.48.39-.63.7-.14.31-.22.67-.22,1.07v.35c0,.86.32,1.1.96.73l3.66-2.11c.64-.37.96-.98.96-1.84v-.35c0-.41-.07-.68-.22-.82-.14-.14-.35-.13-.63.02-.27.16-.49.17-.64.03-.15-.14-.23-.41-.23-.82v-14.67c0-.41.08-.77.23-1.1.15-.32.37-.56.64-.72.56-.32.84-.9.84-1.74v-.35c0-.88-.32-1.13-.96-.76ZM181.69,59.9l-7.61,4.39c-.64.37-.96,1-.96,1.87v.35c0,.84.32,1.07.96.7l1.76-1.01c.64-.37.96-.12.96.76v17.56c0,.88.32,1.13.96.76l.27-.15c.64-.37.96-.99.96-1.87v-17.56c0-.88.32-1.5.96-1.87l1.73-1c.64-.37.96-.97.96-1.81v-.35c0-.88-.32-1.13-.96-.76ZM191.32,55.56c-.13-.7-.47-.88-1.04-.56l-3.03,1.75c-.56.32-.91.91-1.03,1.75l-3.06,22.25c-.02.1-.02.22-.02.37,0,.32.08.53.23.64.15.1.37.07.66-.09l.29-.17c.56-.32.91-.91,1.04-1.75l.6-4.2c.13-.84.47-1.43,1.04-1.75l3.64-2.1c.56-.32.91-.14,1.03.56l.6,3.5c.13.7.47.88,1.04.56l.29-.17c.59-.34.89-.86.89-1.54,0-.17,0-.3-.02-.37l-3.13-18.68ZM189.95,69.19l-2.31,1.33c-.29.17-.51.2-.66.09-.15-.1-.23-.32-.23-.64,0-.15,0-.27.02-.37l1.28-9.25c.13-.84.37-1.37.72-1.57s.59.04.72.74l1.32,7.74c.02.08.02.2.02.37,0,.69-.3,1.2-.89,1.54ZM204.96,66.66l-5.39,3.11c-.64.37-.96.13-.96-.73v-17.59c0-.88-.32-1.13-.96-.76l-.26.15c-.64.37-.96,1-.96,1.87v18.53c0,.62.16,1.05.48,1.29l.77.58c.32.27.71.26,1.18,0l6.12-3.53c.64-.37.96-.98.96-1.84v-.35c0-.86-.32-1.1-.96-.73Z"/>
          <path class="cls-20" d="M141.23,112.41l-3.24,1.87c-.27.16-.41.42-.41.8v.15c0,.36.14.45.41.3l.75-.43c.27-.16.41-.05.41.32v7.48c0,.37.14.48.41.32l.11-.07c.27-.16.41-.42.41-.8v-7.48c0-.37.14-.64.41-.8l.74-.43c.27-.16.41-.41.41-.77v-.15c0-.37-.14-.48-.41-.32ZM145.55,110.21c-.14-.1-.3-.1-.5.02l-2.59,1.5c-.27.16-.41.42-.41.78v8.71c0,.37.14.48.41.32l.11-.07c.27-.16.41-.42.41-.8v-2.5c0-.36.14-.63.41-.78l.47-.27c.27-.16.41-.05.41.31v1.67c0,.26.07.45.2.55l.34.26c.14.1.3.1.5-.02l.37-.21c.27-.16.41-.42.41-.78v-.15c0-.36-.14-.47-.41-.31l-.07.04c-.27.16-.41.05-.41-.31v-1.27c0-.36.02-.56.07-.59.05-.03.14-.17.28-.43l.33-.63c.08-.14.13-.28.16-.4.03-.12.05-.25.05-.39v-3.43c0-.26-.07-.45-.2-.55l-.34-.26ZM145.16,114.59c0,.36-.14.63-.41.78l-1.36.79c-.27.16-.41.05-.41-.31v-2.64c0-.36.14-.63.41-.78l1.36-.79c.27-.16.41-.05.41.31v2.64ZM150.3,107.69c-.05-.3-.2-.38-.44-.24l-1.29.75c-.24.14-.39.39-.44.75l-1.3,9.47s0,.09,0,.16c0,.14.03.23.1.27.07.04.16.03.28-.04l.12-.07c.24-.14.39-.39.44-.75l.26-1.79c.05-.36.2-.61.44-.75l1.55-.89c.24-.14.39-.06.44.24l.26,1.49c.05.3.2.38.44.24l.12-.07c.25-.15.38-.36.38-.66,0-.07,0-.13,0-.16l-1.33-7.95ZM149.71,113.5l-.98.57c-.12.07-.22.08-.28.04-.07-.04-.1-.14-.1-.27,0-.06,0-.12.01-.16l.54-3.94c.05-.36.16-.58.31-.67.15-.09.25.02.31.31l.56,3.3s0,.09,0,.16c0,.29-.13.51-.38.66ZM156.2,103.76l-.11.06c-.27.16-.41.42-.41.8v4.81c0,.15-.02.27-.06.36-.04.1-.09.16-.15.2-.05.03-.1.03-.15,0-.05-.03-.09-.08-.13-.16l-1.65-4.12c-.09-.23-.25-.28-.47-.15l-.21.12c-.27.16-.41.42-.41.8v8.73c0,.36.14.47.41.31l.11-.06c.27-.16.41-.42.41-.78v-5.04c0-.15.02-.27.06-.38.04-.11.09-.18.15-.22.11-.06.2,0,.27.18l1.74,4.31c.09.22.25.27.47.14l.11-.07c.27-.16.41-.42.41-.78v-8.73c0-.37-.14-.48-.41-.32ZM161.16,100.98c-.14-.11-.3-.11-.5,0l-1.99,1.15c-.2.11-.37.3-.5.56l-.33.63c-.14.27-.2.54-.2.8v2.97c0,.26.07.45.2.55l.33.25c.14.1.31.1.51-.02l1.67-.96c.27-.16.41-.05.41.31v1.97c0,.36-.14.63-.41.78l-1.37.79c-.27.16-.41.05-.41-.31v-.94c0-.36-.14-.47-.41-.31l-.11.06c-.27.16-.41.42-.41.78v1.34c0,.26.07.45.2.55l.34.26c.14.1.3.1.5-.02l1.98-1.14c.2-.11.36-.3.5-.56l.33-.63c.14-.27.2-.54.2-.8v-2.76c0-.26-.07-.45-.2-.55l-.33-.25c-.14-.1-.3-.1-.5.02l-1.68.97c-.27.16-.41.05-.41-.31v-2.17c0-.36.14-.63.41-.78l1.37-.79c.27-.16.41-.05.41.31v1.08c0,.36.14.47.41.31l.11-.07c.27-.16.41-.42.41-.78v-1.48c0-.26-.07-.45-.2-.55l-.33-.25ZM166.36,97.93l-3.23,1.86c-.27.16-.41.42-.41.78v8.72c0,.36.14.47.41.31l.11-.06c.27-.16.41-.42.41-.78v-2.82c0-.36.14-.63.41-.78l2.3-1.33c.27-.16.41-.42.41-.78v-.15c0-.36-.14-.47-.41-.31l-2.3,1.33c-.27.16-.41.05-.41-.31v-2.32c0-.36.14-.63.41-.78l2.3-1.33c.27-.16.41-.42.41-.78v-.15c0-.36-.14-.47-.41-.31ZM171.22,95.38c-.14-.11-.3-.11-.5,0l-1.99,1.15c-.2.11-.37.3-.5.56l-.33.63c-.14.27-.2.54-.2.8v7.05c0,.26.07.45.2.55l.34.26c.14.1.3.1.5-.02l1.98-1.14c.2-.11.36-.3.5-.56l.33-.63c.14-.27.2-.54.2-.8v-7.05c0-.26-.07-.45-.2-.55l-.33-.25ZM170.82,103.37c0,.36-.14.63-.41.78l-1.37.79c-.27.16-.41.05-.41-.31v-6.26c0-.36.14-.63.41-.78l1.37-.79c.27-.16.41-.05.41.31v6.26ZM176.28,92.47c-.14-.1-.3-.1-.5.02l-2.59,1.5c-.27.16-.41.42-.41.78v8.71c0,.37.14.48.41.32l.11-.06c.27-.16.41-.42.41-.8v-2.5c0-.36.14-.63.41-.78l.47-.27c.27-.16.41-.05.41.31v1.67c0,.26.07.45.2.55l.34.26c.14.1.3.1.5-.02l.37-.21c.27-.16.41-.42.41-.78v-.15c0-.36-.14-.47-.41-.31l-.07.04c-.27.16-.41.05-.41-.31v-1.27c0-.36.02-.56.07-.59.05-.03.14-.17.28-.43l.33-.63c.08-.14.13-.28.16-.4.03-.12.05-.25.05-.39v-3.43c0-.26-.07-.45-.2-.55l-.34-.26ZM175.89,96.85c0,.36-.14.63-.41.78l-1.36.79c-.27.16-.41.05-.41-.31v-2.64c0-.36.14-.63.41-.78l1.36-.79c.27-.16.41-.05.41.31v2.64ZM182.64,88.53l-.17.1c-.23.13-.39.38-.46.73l-1.31,6.67c-.03.14-.07.27-.11.37-.05.1-.1.17-.15.2-.05.03-.1.02-.14-.02-.05-.04-.08-.12-.11-.23l-1.39-5.14c-.07-.26-.22-.32-.46-.18l-.15.09c-.27.16-.41.42-.41.78v8.71c0,.37.14.48.41.32l.1-.06c.27-.16.41-.42.41-.8v-3.39c0-.13.02-.24.06-.33.04-.09.09-.16.15-.19.05-.03.09-.03.14,0,.04.02.08.08.11.16l.65,2.36c.07.27.23.33.47.19l.4-.23c.23-.13.39-.38.46-.74l.56-2.89c.05-.22.13-.36.24-.43.06-.04.11-.03.15,0,.04.04.06.13.06.25v3.24c0,.37.14.48.41.32l.1-.06c.27-.16.41-.42.41-.8v-8.71c0-.36-.14-.47-.41-.31ZM187.35,86.3c-.05-.3-.2-.38-.44-.24l-1.29.75c-.24.14-.39.39-.44.75l-1.3,9.47s0,.09,0,.16c0,.14.03.23.1.27.07.04.16.03.28-.04l.12-.07c.24-.14.39-.39.44-.75l.26-1.79c.05-.36.2-.61.44-.75l1.55-.89c.24-.14.39-.06.44.24l.26,1.49c.05.3.2.38.44.24l.12-.07c.25-.15.38-.36.38-.66,0-.07,0-.13,0-.16l-1.33-7.95ZM186.77,92.1l-.98.57c-.12.07-.22.08-.28.04-.07-.04-.1-.14-.1-.27,0-.06,0-.12.01-.16l.54-3.94c.05-.36.16-.58.31-.67.15-.09.25.02.31.31l.56,3.3s0,.09,0,.16c0,.29-.13.51-.38.66ZM192.55,82.78l-3.24,1.87c-.27.16-.41.42-.41.8v.15c0,.36.14.45.41.3l.75-.43c.27-.16.41-.05.41.32v7.48c0,.37.14.48.41.32l.11-.07c.27-.16.41-.42.41-.8v-7.48c0-.37.14-.64.41-.8l.74-.43c.27-.16.41-.41.41-.77v-.15c0-.37-.14-.48-.41-.32ZM195.03,81.35l-1.56.9c-.27.16-.41.42-.41.8v.15c0,.17.03.29.09.34.06.06.15.05.27-.02.12-.07.2-.07.27,0,.06.07.09.18.09.36v6.25c0,.17-.03.33-.09.46-.06.13-.15.23-.27.3-.12.07-.21.17-.27.3-.06.13-.09.28-.09.46v.15c0,.36.14.47.41.31l1.56-.9c.27-.16.41-.42.41-.78v-.15c0-.17-.03-.29-.09-.35-.06-.06-.15-.06-.27.01-.12.07-.21.07-.27.01-.07-.06-.1-.17-.1-.35v-6.25c0-.17.03-.33.1-.47.07-.14.15-.24.27-.31.24-.14.36-.38.36-.74v-.15c0-.37-.14-.48-.41-.32ZM199.68,78.95c-.14-.11-.3-.11-.5,0l-1.99,1.15c-.2.11-.37.3-.5.56l-.33.63c-.14.27-.2.54-.2.8v7.05c0,.26.07.45.2.55l.34.26c.14.1.3.1.5-.02l1.98-1.14c.2-.11.36-.3.5-.56l.33-.63c.14-.27.21-.54.21-.8v-7.05c0-.26-.07-.45-.21-.55l-.33-.25ZM199.28,86.94c0,.36-.14.63-.41.78l-1.37.79c-.27.16-.41.05-.41-.31v-6.26c0-.36.14-.63.41-.78l1.37-.79c.27-.16.41-.05.41.31v6.26ZM204.98,75.6l-.11.06c-.27.16-.41.42-.41.8v4.81c0,.15-.02.27-.06.36-.04.1-.09.16-.15.2-.05.03-.1.03-.15,0-.05-.03-.09-.08-.13-.16l-1.65-4.12c-.09-.23-.25-.28-.47-.15l-.21.12c-.27.16-.41.42-.41.8v8.73c0,.36.14.47.41.31l.11-.06c.27-.16.41-.42.41-.78v-5.04c0-.15.02-.27.06-.38.04-.11.09-.18.15-.21.11-.06.2,0,.27.18l1.74,4.31c.09.22.25.27.47.14l.11-.07c.27-.16.41-.42.41-.78v-8.73c0-.37-.14-.48-.41-.32Z"/>
        </g>
      </g>
    </g>
  </g>
</svg>